<svg height="512pt" viewBox="-31 0 512 512.00004" width="512pt" xmlns="http://www.w3.org/2000/svg"><path d="m450.015625 0h-450.015625v122.003906h33.6875l60.003906 210.007813h262.636719l60.003906-210.007813h33.6875v-122.003906zm-82.03125 182.007812-17.140625 60h-31.207031l17.148437-60zm-79.550781 60h-48.425782v-60h65.574219zm-78.425782 0h-48.421874l-17.152344-60h65.574218zm-96.777343-60 17.148437 60h-31.203125l-17.144531-60zm3.089843 120.003907-8.574218-30h234.523437l-8.570312 30zm260.238282-150.007813c-33.808594 0-269.980469 0-303.097656 0l-8.574219-30h320.242187zm43.457031-60h-390.015625v-62.003906h390.015625zm0 0"/><path d="m142.433594 427.035156c-14.234375 9.492188-22.734375 25.371094-22.734375 42.480469 0 17.113281 8.5 32.992187 22.734375 42.484375l16.640625-24.964844c-5.957031-3.96875-9.375-10.355468-9.375-17.519531 0-7.160156 3.417969-13.546875 9.375-17.519531 14.238281-9.488282 22.738281-25.371094 22.738281-42.480469s-8.5-32.992187-22.738281-42.484375l-16.640625 24.964844c5.957031 3.972656 9.378906 10.359375 9.378906 17.519531s-3.421875 13.546875-9.378906 17.519531zm0 0"/><path d="m217.4375 427.035156c-14.238281 9.492188-22.734375 25.371094-22.734375 42.480469 0 17.113281 8.496094 32.992187 22.734375 42.484375l16.640625-24.964844c-5.957031-3.96875-9.375-10.355468-9.375-17.519531 0-7.160156 3.417969-13.546875 9.375-17.519531 14.238281-9.488282 22.738281-25.371094 22.738281-42.480469s-8.5-32.992187-22.738281-42.484375l-16.640625 24.964844c5.957031 3.972656 9.375 10.359375 9.375 17.519531s-3.417969 13.546875-9.375 17.519531zm0 0"/><path d="m292.441406 427.035156c-14.238281 9.492188-22.738281 25.371094-22.738281 42.480469 0 17.113281 8.5 32.992187 22.738281 42.484375l16.640625-24.964844c-5.957031-3.96875-9.375-10.355468-9.375-17.519531 0-7.160156 3.417969-13.546875 9.375-17.519531 14.234375-9.488282 22.734375-25.371094 22.734375-42.480469s-8.5-32.992187-22.734375-42.484375l-16.640625 24.964844c5.957032 3.972656 9.375 10.359375 9.375 17.519531s-3.417968 13.546875-9.375 17.519531zm0 0"/></svg>