<?xml version="1.0" encoding="utf-8"?>
<!-- Generator: Adobe Illustrator 21.1.0, SVG Export Plug-In . SVG Version: 6.00 Build 0)  -->
<svg version="1.1" id="Laag_1" xmlns="http://www.w3.org/2000/svg" xmlns:xlink="http://www.w3.org/1999/xlink" x="0px" y="0px"
	 viewBox="0 0 56.4 56.4" style="enable-background:new 0 0 56.4 56.4;" xml:space="preserve">
<style type="text/css">
	.st0{fill:none;stroke:#000000;stroke-miterlimit:10;}
	.st1{fill:none;stroke:#000000;stroke-width:0.5;stroke-miterlimit:10;}
</style>
<circle class="st0" cx="28.2" cy="28.2" r="27.7"/>
<circle class="st1" cx="28.2" cy="28.2" r="19.5"/>
<circle class="st1" cx="28.2" cy="28.2" r="18"/>
<circle class="st1" cx="28.2" cy="28.2" r="13.9"/>
<circle class="st1" cx="28.2" cy="28.2" r="13"/>
<polygon points="21.7,28.5 22.5,28.5 22.5,30 23.2,30 23.2,26.4 22.5,26.4 22.5,27.7 21.7,27.7 21.7,26.4 21,26.4 21,30 21.7,30 "/>
<polygon points="25.7,29.2 24.5,29.2 24.5,28.5 25.6,28.5 25.6,27.8 24.5,27.8 24.5,27.2 25.7,27.2 25.7,26.4 23.7,26.4 23.7,30 
	25.7,30 "/>
<rect x="26.2" y="26.4" width="0.7" height="3.5"/>
<polygon points="28,27.3 28.5,30 29,30 29.5,27.3 29.5,30 30.1,30 30.1,26.4 29.1,26.4 28.8,28.6 28.4,26.4 27.4,26.4 27.4,30 
	28,30 "/>
<path d="M31.2,29.4H32l0.1,0.6h0.8L32,26.4h-0.8L30.3,30h0.8L31.2,29.4z M31.6,27.4l0.3,1.3h-0.5L31.6,27.4z"/>
<polygon points="33.9,28 34.8,30 35.4,30 35.4,26.4 34.8,26.4 34.8,28.4 33.9,26.4 33.2,26.4 33.2,30 33.9,30 "/>
</svg>
