<?xml version="1.0" encoding="utf-8"?>
<!-- Generator: Adobe Illustrator 21.1.0, SVG Export Plug-In . SVG Version: 6.00 Build 0)  -->
<svg version="1.1" id="Laag_1" xmlns="http://www.w3.org/2000/svg" xmlns:xlink="http://www.w3.org/1999/xlink" x="0px" y="0px"
	 viewBox="0 0 75.7 76.2" style="enable-background:new 0 0 75.7 76.2;" xml:space="preserve">
<style type="text/css">
	.st0{fill-rule:evenodd;clip-rule:evenodd;fill:#FFFFFF;stroke:#000000;stroke-miterlimit:22.9256;}
	.st1{fill:#FFFFFF;stroke:#1D1D1B;stroke-width:0.5426;stroke-linecap:round;stroke-linejoin:round;stroke-miterlimit:22.9256;}
	.st2{fill:none;stroke:#1D1D1B;stroke-width:0.2835;stroke-linecap:square;stroke-linejoin:bevel;stroke-miterlimit:22.9256;}
	.st3{fill:#0066FF;stroke:#1D1D1B;stroke-width:0.2835;stroke-linecap:square;stroke-linejoin:bevel;stroke-miterlimit:22.9256;}
	.st4{fill:none;stroke:#1D1D1B;stroke-width:0.5426;stroke-linecap:round;stroke-linejoin:round;stroke-miterlimit:22.9256;}
	.st5{fill:#FFFFFF;}
</style>
<path class="st0" d="M5.3,5.5c0,0,3.8-5,22.6-5c18.7,0,21.7,3.1,21.7,3.1s6.3,1.7,7.2,19.4C57.7,40.7,55,46.1,55,46.1
	s-0.8,8.6-13,10.1C29.9,57.5,10.7,58,5.6,52.4c-5.1-5.6-5.1-23.6-5.1-23.6s0.1-13,1.5-17.3C3.3,7.3,5.3,5.5,5.3,5.5"/>
<path class="st1" d="M54.2,54.4h-1.8c-1.2-0.1-4.7-4.2-5.1-4.9c-0.4-0.8-0.3-1.3-0.2-2.3c0.1-1,1.1-2.5,1.5-3.8
	c0.4-1.3,2.3-3.5,2.3-3.5"/>
<path class="st2" d="M43,50.8c0.3,0,0.6,0,0.9-0.1c0.3-0.1,0.6-0.2,0.9-0.3c0.3-0.1,0.6-0.3,0.8-0.4c0.3-0.2,0.5-0.4,0.7-0.6
	c0.2-0.2,0.4-0.5,0.6-0.7c0.2-0.3,0.3-0.5,0.4-0.8c0.1-0.3,0.2-0.6,0.3-0.9c0.1-0.3,0.1-0.6,0.1-0.9"/>
<line class="st2" x1="9.9" y1="32.8" x2="9.9" y2="42.9"/>
<line class="st2" x1="10.2" y1="32.8" x2="10.2" y2="42.9"/>
<line class="st2" x1="10.2" y1="24.8" x2="10.2" y2="29.4"/>
<line class="st2" x1="10.3" y1="24.8" x2="10.3" y2="25.2"/>
<line class="st2" x1="10.3" y1="25.2" x2="10.3" y2="29.3"/>
<line class="st2" x1="10.3" y1="32.8" x2="10.3" y2="46.1"/>
<line class="st2" x1="10.3" y1="32.8" x2="10.3" y2="43.7"/>
<line class="st2" x1="10.6" y1="32.8" x2="10.6" y2="43.7"/>
<line class="st2" x1="10.7" y1="26.9" x2="10.7" y2="26"/>
<line class="st2" x1="11.4" y1="26.9" x2="11.4" y2="26"/>
<line class="st2" x1="11.5" y1="21.7" x2="11.5" y2="24.4"/>
<line class="st2" x1="11.6" y1="21.8" x2="11.6" y2="24.4"/>
<line class="st2" x1="11.9" y1="25.2" x2="11.9" y2="21.8"/>
<line class="st2" x1="12.1" y1="31.4" x2="12.1" y2="30.7"/>
<line class="st2" x1="12.7" y1="26.9" x2="12.7" y2="26"/>
<line class="st2" x1="43" y1="50.5" x2="42.8" y2="50.5"/>
<line class="st2" x1="37.5" y1="50.5" x2="36.1" y2="50.5"/>
<line class="st2" x1="19.8" y1="50.6" x2="22" y2="50.6"/>
<line class="st2" x1="35.7" y1="50.6" x2="37.9" y2="50.6"/>
<line class="st2" x1="14.7" y1="50.5" x2="19.8" y2="50.5"/>
<line class="st2" x1="22" y1="50.5" x2="26.2" y2="50.5"/>
<line class="st2" x1="31.5" y1="50.5" x2="35.7" y2="50.5"/>
<line class="st2" x1="37.9" y1="50.5" x2="43" y2="50.5"/>
<line class="st2" x1="21.6" y1="50.5" x2="20.2" y2="50.5"/>
<line class="st2" x1="14.9" y1="50.5" x2="14.7" y2="50.5"/>
<line class="st2" x1="13.4" y1="26.9" x2="13.4" y2="26"/>
<line class="st2" x1="13.8" y1="21.8" x2="13.8" y2="29.3"/>
<line class="st2" x1="13.9" y1="21.7" x2="13.9" y2="29.4"/>
<line class="st2" x1="14.7" y1="50.6" x2="14.7" y2="50.5"/>
<line class="st2" x1="14.9" y1="50.5" x2="14.9" y2="50.5"/>
<line class="st2" x1="14.7" y1="50.5" x2="14.7" y2="50.5"/>
<line class="st2" x1="11.2" y1="24.8" x2="11.5" y2="24.4"/>
<line class="st2" x1="11.6" y1="24.4" x2="11.6" y2="24.4"/>
<line class="st2" x1="13.8" y1="21.8" x2="13.9" y2="21.7"/>
<line class="st2" x1="11.6" y1="24.4" x2="11.2" y2="24.8"/>
<line class="st2" x1="10.3" y1="46.1" x2="10.3" y2="46.1"/>
<line class="st2" x1="10.2" y1="46.1" x2="10.3" y2="46.1"/>
<line class="st2" x1="47.5" y1="46.1" x2="47.4" y2="46.1"/>
<line class="st2" x1="47.4" y1="46.1" x2="47.4" y2="46.1"/>
<line class="st2" x1="10.3" y1="25.2" x2="10.3" y2="25.2"/>
<line class="st2" x1="11.2" y1="24.8" x2="11.2" y2="24.8"/>
<line class="st2" x1="10.2" y1="29.4" x2="10.3" y2="29.3"/>
<line class="st2" x1="10.6" y1="44.1" x2="10.3" y2="44.1"/>
<line class="st2" x1="47.1" y1="43.7" x2="47.4" y2="43.7"/>
<line class="st2" x1="47.5" y1="42.9" x2="47.8" y2="42.9"/>
<line class="st2" x1="10.2" y1="42.9" x2="9.9" y2="42.9"/>
<line class="st2" x1="47.1" y1="44.1" x2="47.4" y2="44.1"/>
<line class="st2" x1="10.6" y1="43.7" x2="10.3" y2="43.7"/>
<line class="st2" x1="13.9" y1="29.4" x2="13.8" y2="29.3"/>
<line class="st2" x1="19.8" y1="50.5" x2="19.8" y2="50.6"/>
<line class="st2" x1="20" y1="50.5" x2="20" y2="50.6"/>
<line class="st2" x1="20.2" y1="50.5" x2="20.2" y2="50.6"/>
<line class="st2" x1="21.6" y1="50.6" x2="21.6" y2="50.5"/>
<line class="st2" x1="21.8" y1="50.6" x2="21.8" y2="50.5"/>
<line class="st2" x1="22" y1="50.5" x2="22" y2="50.6"/>
<line class="st2" x1="10.2" y1="24.8" x2="10.3" y2="24.8"/>
<line class="st2" x1="23.1" y1="31" x2="23.1" y2="30.7"/>
<line class="st2" x1="23.3" y1="24.4" x2="23.3" y2="30.5"/>
<line class="st2" x1="23.6" y1="24.4" x2="23.6" y2="30.5"/>
<line class="st2" x1="23.6" y1="24.5" x2="23.6" y2="26.3"/>
<line class="st2" x1="23.6" y1="26.7" x2="23.6" y2="27.3"/>
<line class="st2" x1="23.6" y1="30.6" x2="23.6" y2="31.1"/>
<line class="st2" x1="23.8" y1="31.1" x2="23.8" y2="27.5"/>
<line class="st2" x1="23.8" y1="31.1" x2="23.8" y2="26.6"/>
<line class="st2" x1="24" y1="31.1" x2="24" y2="26.6"/>
<line class="st2" x1="24.7" y1="26" x2="24.7" y2="26.6"/>
<line class="st2" x1="24.8" y1="26" x2="24.8" y2="26.6"/>
<line class="st2" x1="25" y1="26" x2="25" y2="26.6"/>
<line class="st2" x1="24.7" y1="27.4" x2="24.7" y2="26.8"/>
<line class="st2" x1="23.6" y1="26.7" x2="23.6" y2="26.6"/>
<line class="st2" x1="24.7" y1="26.6" x2="24.7" y2="26.8"/>
<line class="st2" x1="24.7" y1="27.2" x2="24.7" y2="27.4"/>
<line class="st2" x1="11.5" y1="21.7" x2="11.6" y2="21.8"/>
<line class="st2" x1="23.1" y1="31" x2="23.2" y2="31.1"/>
<line class="st2" x1="23.6" y1="30.5" x2="23.6" y2="30.6"/>
<line class="st2" x1="25.6" y1="25.4" x2="25.6" y2="25.1"/>
<line class="st2" x1="26.2" y1="50.5" x2="26.2" y2="50.5"/>
<line class="st2" x1="25" y1="27.5" x2="24.9" y2="27.7"/>
<line class="st2" x1="11.9" y1="21.8" x2="11.9" y2="21.8"/>
<line class="st2" x1="23.8" y1="27.5" x2="23.6" y2="27.3"/>
<line class="st2" x1="23.6" y1="24.4" x2="23.6" y2="24.5"/>
<line class="st2" x1="45.6" y1="31.4" x2="12.1" y2="31.4"/>
<line class="st2" x1="24" y1="31.1" x2="33.7" y2="31.1"/>
<line class="st2" x1="45.6" y1="31.1" x2="33.7" y2="31.1"/>
<line class="st2" x1="24" y1="31.1" x2="12.1" y2="31.1"/>
<line class="st2" x1="45.6" y1="31.1" x2="33.9" y2="31.1"/>
<line class="st2" x1="23.8" y1="31.1" x2="12.1" y2="31.1"/>
<line class="st2" x1="47.8" y1="32.8" x2="47.1" y2="32.8"/>
<line class="st2" x1="10.6" y1="32.8" x2="9.9" y2="32.8"/>
<line class="st2" x1="11.6" y1="24.4" x2="11.5" y2="24.4"/>
<line class="st2" x1="33.1" y1="26.8" x2="33.1" y2="27.4"/>
<line class="st2" x1="31.5" y1="50.5" x2="31.5" y2="50.5"/>
<line class="st2" x1="32.1" y1="25.4" x2="32.1" y2="25.1"/>
<line class="st2" x1="32.7" y1="26.6" x2="32.7" y2="26"/>
<line class="st2" x1="32.9" y1="26.6" x2="32.9" y2="26"/>
<line class="st2" x1="33" y1="26.6" x2="33" y2="26"/>
<line class="st2" x1="33.7" y1="31.1" x2="33.7" y2="26.6"/>
<line class="st2" x1="34.1" y1="24.4" x2="34.1" y2="24.5"/>
<line class="st2" x1="34" y1="27.5" x2="34.1" y2="27.3"/>
<line class="st2" x1="45.6" y1="31" x2="34.6" y2="31"/>
<line class="st2" x1="23.1" y1="31" x2="12.1" y2="31"/>
<line class="st2" x1="45.6" y1="30.7" x2="34.6" y2="30.7"/>
<line class="st2" x1="23.1" y1="30.7" x2="12.1" y2="30.7"/>
<line class="st2" x1="34.1" y1="30.5" x2="34.4" y2="30.5"/>
<line class="st2" x1="23.6" y1="30.5" x2="23.3" y2="30.5"/>
<line class="st2" x1="10.2" y1="29.4" x2="13.9" y2="29.4"/>
<line class="st2" x1="43.8" y1="29.4" x2="47.5" y2="29.4"/>
<line class="st2" x1="10.3" y1="29.3" x2="13.8" y2="29.3"/>
<line class="st2" x1="43.9" y1="29.3" x2="47.4" y2="29.3"/>
<line class="st2" x1="33.7" y1="28.8" x2="24" y2="28.8"/>
<line class="st2" x1="32.8" y1="27.7" x2="32.7" y2="27.5"/>
<line class="st2" x1="33.1" y1="27.4" x2="33" y2="27.2"/>
<line class="st2" x1="33" y1="26.6" x2="33.1" y2="26.8"/>
<line class="st2" x1="33.9" y1="31.1" x2="33.9" y2="26.6"/>
<line class="st2" x1="34" y1="31.1" x2="34" y2="27.5"/>
<line class="st2" x1="34.1" y1="31.1" x2="34.1" y2="30.6"/>
<line class="st2" x1="34.1" y1="26.7" x2="34.1" y2="27.3"/>
<line class="st2" x1="34.1" y1="26.3" x2="34.1" y2="24.5"/>
<line class="st2" x1="34.1" y1="30.5" x2="34.1" y2="24.4"/>
<line class="st2" x1="34.4" y1="30.5" x2="34.4" y2="24.4"/>
<line class="st2" x1="34.6" y1="31" x2="34.6" y2="30.7"/>
<line class="st2" x1="35.7" y1="50.5" x2="35.7" y2="50.6"/>
<line class="st2" x1="35.9" y1="50.5" x2="35.9" y2="50.6"/>
<line class="st2" x1="36.1" y1="50.5" x2="36.1" y2="50.6"/>
<line class="st2" x1="34.1" y1="30.5" x2="34.1" y2="30.6"/>
<line class="st2" x1="34.6" y1="31" x2="34.5" y2="31.1"/>
<line class="st2" x1="45.8" y1="21.8" x2="45.8" y2="21.8"/>
<line class="st2" x1="46.1" y1="24.4" x2="46.2" y2="24.4"/>
<line class="st2" x1="33.7" y1="28" x2="24" y2="28"/>
<line class="st2" x1="24" y1="27.7" x2="24.9" y2="27.7"/>
<line class="st2" x1="32.8" y1="27.7" x2="33.7" y2="27.7"/>
<line class="st2" x1="23.8" y1="27.5" x2="23.8" y2="27.5"/>
<line class="st2" x1="33.9" y1="27.5" x2="34" y2="27.5"/>
<line class="st2" x1="23.8" y1="27.5" x2="24.7" y2="27.5"/>
<line class="st2" x1="33.1" y1="27.5" x2="33.9" y2="27.5"/>
<line class="st2" x1="25" y1="27.5" x2="32.7" y2="27.5"/>
<line class="st2" x1="10.7" y1="26.9" x2="11.4" y2="26.9"/>
<line class="st2" x1="12.7" y1="26.9" x2="13.4" y2="26.9"/>
<line class="st2" x1="44.3" y1="26.9" x2="45" y2="26.9"/>
<line class="st2" x1="46.3" y1="26.9" x2="47.1" y2="26.9"/>
<line class="st2" x1="24.8" y1="26.6" x2="32.9" y2="26.6"/>
<line class="st2" x1="34.1" y1="26.6" x2="33" y2="26.6"/>
<line class="st2" x1="24.7" y1="26.6" x2="23.6" y2="26.6"/>
<line class="st2" x1="10.7" y1="26.5" x2="11.4" y2="26.5"/>
<line class="st2" x1="12.7" y1="26.5" x2="13.4" y2="26.5"/>
<line class="st2" x1="44.3" y1="26.5" x2="45" y2="26.5"/>
<line class="st2" x1="46.3" y1="26.5" x2="47.1" y2="26.5"/>
<line class="st2" x1="47.1" y1="26.4" x2="46.3" y2="26.4"/>
<line class="st2" x1="45" y1="26.4" x2="44.3" y2="26.4"/>
<line class="st2" x1="13.4" y1="26.4" x2="12.7" y2="26.4"/>
<line class="st2" x1="11.4" y1="26.4" x2="10.7" y2="26.4"/>
<line class="st2" x1="34.1" y1="26.3" x2="33" y2="26.3"/>
<line class="st2" x1="24.7" y1="26.3" x2="23.6" y2="26.3"/>
<line class="st2" x1="47.1" y1="26" x2="46.3" y2="26"/>
<line class="st2" x1="45" y1="26" x2="44.3" y2="26"/>
<line class="st2" x1="13.4" y1="26" x2="12.7" y2="26"/>
<line class="st2" x1="11.4" y1="26" x2="10.7" y2="26"/>
<line class="st2" x1="32.7" y1="26" x2="33" y2="26"/>
<line class="st2" x1="32.1" y1="25.4" x2="25.6" y2="25.4"/>
<line class="st2" x1="10.3" y1="25.2" x2="11.9" y2="25.2"/>
<line class="st2" x1="45.8" y1="25.2" x2="47.4" y2="25.2"/>
<line class="st2" x1="25" y1="26" x2="24.7" y2="26"/>
<line class="st2" x1="25.6" y1="25.1" x2="25.6" y2="25.1"/>
<line class="st2" x1="34.1" y1="26.7" x2="34.1" y2="26.6"/>
<line class="st2" x1="37.5" y1="50.6" x2="37.5" y2="50.5"/>
<line class="st2" x1="37.7" y1="50.6" x2="37.7" y2="50.5"/>
<line class="st2" x1="37.9" y1="50.5" x2="37.9" y2="50.6"/>
<line class="st2" x1="46.2" y1="21.7" x2="46.1" y2="21.8"/>
<line class="st2" x1="34.2" y1="24.1" x2="34.1" y2="24.1"/>
<line class="st2" x1="32.1" y1="25.1" x2="25.6" y2="25.1"/>
<line class="st2" x1="47.5" y1="24.8" x2="46.5" y2="24.8"/>
<line class="st2" x1="11.2" y1="24.8" x2="10.3" y2="24.8"/>
<line class="st2" x1="47.5" y1="24.8" x2="46.6" y2="24.8"/>
<line class="st2" x1="11.2" y1="24.8" x2="10.2" y2="24.8"/>
<line class="st2" x1="34.1" y1="24.5" x2="31.1" y2="24.5"/>
<line class="st2" x1="26.6" y1="24.5" x2="23.6" y2="24.5"/>
<line class="st2" x1="34.1" y1="24.4" x2="34.4" y2="24.4"/>
<line class="st2" x1="23.6" y1="24.4" x2="23.3" y2="24.4"/>
<line class="st2" x1="23.5" y1="24.1" x2="23.6" y2="24.1"/>
<line class="st2" x1="43.8" y1="29.4" x2="43.9" y2="29.3"/>
<line class="st2" x1="47.5" y1="24.8" x2="47.5" y2="24.8"/>
<line class="st2" x1="45.8" y1="21.8" x2="43.9" y2="21.8"/>
<line class="st2" x1="13.8" y1="21.8" x2="11.9" y2="21.8"/>
<line class="st2" x1="46.1" y1="21.8" x2="45.8" y2="21.8"/>
<line class="st2" x1="11.9" y1="21.8" x2="11.6" y2="21.8"/>
<line class="st2" x1="46.2" y1="21.7" x2="43.8" y2="21.7"/>
<line class="st2" x1="13.9" y1="21.7" x2="11.5" y2="21.7"/>
<line class="st2" x1="43" y1="50.5" x2="43" y2="50.5"/>
<line class="st2" x1="42.8" y1="50.5" x2="42.8" y2="50.5"/>
<line class="st2" x1="43" y1="50.6" x2="43" y2="50.5"/>
<line class="st2" x1="43.8" y1="29.4" x2="43.8" y2="21.7"/>
<line class="st2" x1="43.9" y1="29.3" x2="43.9" y2="21.8"/>
<line class="st2" x1="44.3" y1="26.9" x2="44.3" y2="26"/>
<line class="st2" x1="45" y1="26.9" x2="45" y2="26"/>
<line class="st2" x1="46.5" y1="24.8" x2="46.6" y2="24.8"/>
<line class="st2" x1="47.4" y1="25.2" x2="47.4" y2="25.2"/>
<line class="st2" x1="46.5" y1="24.8" x2="46.1" y2="24.4"/>
<line class="st2" x1="43.8" y1="21.7" x2="43.9" y2="21.8"/>
<line class="st2" x1="46.1" y1="24.4" x2="46.1" y2="24.4"/>
<line class="st2" x1="46.2" y1="24.4" x2="46.6" y2="24.8"/>
<line class="st2" x1="47.5" y1="29.4" x2="47.4" y2="29.3"/>
<line class="st2" x1="45.6" y1="31.4" x2="45.6" y2="30.7"/>
<line class="st2" x1="45.8" y1="21.8" x2="45.8" y2="25.2"/>
<line class="st2" x1="46.1" y1="24.4" x2="46.1" y2="21.8"/>
<line class="st2" x1="46.2" y1="24.4" x2="46.2" y2="21.7"/>
<line class="st2" x1="46.3" y1="26.9" x2="46.3" y2="26"/>
<line class="st2" x1="47.1" y1="26.9" x2="47.1" y2="26"/>
<line class="st2" x1="47.1" y1="43.7" x2="47.1" y2="32.8"/>
<line class="st2" x1="47.4" y1="43.7" x2="47.4" y2="32.8"/>
<line class="st2" x1="47.4" y1="46.1" x2="47.4" y2="32.8"/>
<line class="st2" x1="47.4" y1="29.3" x2="47.4" y2="25.2"/>
<line class="st2" x1="47.4" y1="24.8" x2="47.4" y2="25.2"/>
<line class="st2" x1="47.5" y1="29.4" x2="47.5" y2="24.8"/>
<line class="st2" x1="47.5" y1="42.9" x2="47.5" y2="32.8"/>
<line class="st2" x1="47.8" y1="42.9" x2="47.8" y2="32.8"/>
<path class="st2" d="M47.4,46.1c0-0.8,0-1.6,0-2.4"/>
<path class="st2" d="M47.5,46.1c0-1.1,0-2.2,0-3.2"/>
<path class="st2" d="M48.1,41.7c2-8.7,2-17.8,0-26.6"/>
<path class="st2" d="M33.1,26.8c0-0.1,0-0.1,0-0.2"/>
<path class="st2" d="M9.6,41.7c0.1,0.4,0.2,0.8,0.4,1.2"/>
<path class="st2" d="M10.3,46.1c0,0.3,0,0.5,0.1,0.8"/>
<path class="st2" d="M10.4,47c0.4,2,2.2,3.5,4.3,3.5"/>
<path class="st2" d="M10.3,46.1c0,2.4,1.9,4.4,4.4,4.4"/>
<path class="st2" d="M14.7,50.5C14.7,50.5,14.7,50.5,14.7,50.5"/>
<path class="st2" d="M12.1,30.7c-0.6,0-1.1,0.2-1.5,0.6c-0.4,0.4-0.6,0.9-0.6,1.5"/>
<path class="st2" d="M12.1,31c-0.5,0-1,0.2-1.3,0.5c-0.4,0.4-0.5,0.8-0.5,1.3"/>
<path class="st2" d="M12.1,31.1c-0.5,0-0.9,0.2-1.2,0.5c-0.3,0.3-0.5,0.8-0.5,1.2"/>
<path class="st2" d="M12.1,31.1c-0.5,0-0.9,0.2-1.2,0.5c-0.3,0.3-0.5,0.8-0.5,1.2"/>
<path class="st2" d="M12.1,31.4c-0.4,0-0.8,0.2-1,0.4c-0.3,0.3-0.4,0.7-0.4,1"/>
<path class="st2" d="M25.6,25.1c-0.5,0-0.9,0.4-0.9,0.9"/>
<path class="st2" d="M25.6,25.4c-0.3,0-0.6,0.3-0.6,0.6"/>
<path class="st2" d="M23.1,31c0.2,0,0.4-0.2,0.4-0.4"/>
<path class="st2" d="M23.1,30.7c0,0,0.1,0,0.1-0.1c0,0,0.1-0.1,0.1-0.1"/>
<path class="st2" d="M23.6,24.1c1.8,0.1,3.5,0.1,5.3,0.1"/>
<path class="st2" d="M23.6,24.4c1,0,2,0,3,0.1"/>
<path class="st2" d="M10.2,42.9c0,1.1,0,2.2,0,3.2"/>
<path class="st2" d="M42.1,9.1c-8.7-2-17.8-2-26.6,0"/>
<path class="st2" d="M47.8,42.9c0.1-0.4,0.3-0.8,0.4-1.2"/>
<path class="st2" d="M43,50.5c2.1,0,3.9-1.5,4.3-3.5"/>
<path class="st2" d="M47.3,46.9c0-0.3,0.1-0.5,0.1-0.8"/>
<path class="st2" d="M43,50.5c2.4,0,4.4-2,4.4-4.4"/>
<path class="st2" d="M43,50.5C43,50.5,43,50.5,43,50.5"/>
<path class="st2" d="M47.8,32.8c0-0.6-0.2-1.1-0.6-1.5c-0.4-0.4-0.9-0.6-1.5-0.6"/>
<path class="st2" d="M47.5,32.8c0-0.5-0.2-1-0.5-1.3c-0.4-0.4-0.8-0.5-1.3-0.5"/>
<path class="st2" d="M47.4,32.8c0-0.5-0.2-0.9-0.5-1.2c-0.3-0.3-0.8-0.5-1.2-0.5"/>
<path class="st2" d="M47.4,32.8c0-0.5-0.2-0.9-0.5-1.2c-0.3-0.3-0.8-0.5-1.2-0.5"/>
<path class="st2" d="M47.1,32.8c0-0.4-0.2-0.8-0.4-1c-0.3-0.3-0.7-0.4-1-0.4"/>
<path class="st2" d="M34.1,30.5c0,0.2,0.2,0.4,0.4,0.4"/>
<path class="st2" d="M34.4,30.5c0,0,0,0.1,0.1,0.1c0,0,0.1,0.1,0.1,0.1"/>
<path class="st2" d="M26.2,50.5c0.8,0,1.6,0.1,2.4,0.1"/>
<path class="st2" d="M29.1,50.6c0.5,0,1,0,1.5,0"/>
<path class="st2" d="M15.6,47.7c8.7,2,17.8,2,26.6,0"/>
<path class="st2" d="M24.7,26.6c0,0.1,0,0.1,0,0.2"/>
<circle class="st2" cx="39.5" cy="22.3" r="2.6"/>
<circle class="st2" cx="39.5" cy="22.3" r="2.6"/>
<circle class="st2" cx="39.5" cy="22.3" r="2.5"/>
<circle class="st3" cx="39.5" cy="22.3" r="2"/>
<path class="st2" d="M32.9,26c0-0.5-0.4-0.9-0.9-0.9"/>
<path class="st2" d="M32.7,26c0-0.3-0.3-0.6-0.6-0.6"/>
<path class="st2" d="M33.9,27.5C33.9,27.5,33.9,27.5,33.9,27.5"/>
<path class="st2" d="M10.3,43.7c0,0.8,0,1.6,0,2.4"/>
<path class="st2" d="M28.9,24.2c1.7,0,3.4,0,5.2-0.1"/>
<path class="st2" d="M31.1,24.5c1,0,2,0,3-0.1"/>
<path class="st2" d="M47.4,46.1c0,0.3,0,0.6-0.1,0.9c-0.1,0.3-0.1,0.6-0.3,0.8c-0.1,0.3-0.2,0.5-0.4,0.8c-0.2,0.2-0.3,0.5-0.5,0.7
	c-0.2,0.2-0.4,0.4-0.7,0.5c-0.2,0.2-0.5,0.3-0.8,0.4c-0.3,0.1-0.5,0.2-0.8,0.3c-0.3,0.1-0.6,0.1-0.9,0.1"/>
<path class="st2" d="M42.8,50.5c-1.6,0-3.2,0-4.9,0"/>
<line class="st2" x1="37.9" y1="50.5" x2="37.7" y2="50.5"/>
<line class="st2" x1="37.7" y1="50.5" x2="37.5" y2="50.5"/>
<line class="st2" x1="36.1" y1="50.5" x2="35.9" y2="50.5"/>
<line class="st2" x1="35.9" y1="50.5" x2="35.7" y2="50.5"/>
<path class="st2" d="M35.7,50.5c-1.4,0-2.8,0-4.2,0"/>
<path class="st2" d="M31.5,50.5c-1.8,0-3.5,0-5.3,0"/>
<path class="st2" d="M26.2,50.5c-1.4,0-2.8,0-4.2,0"/>
<line class="st2" x1="22" y1="50.5" x2="21.8" y2="50.5"/>
<line class="st2" x1="21.8" y1="50.5" x2="21.6" y2="50.5"/>
<line class="st2" x1="20.2" y1="50.5" x2="20" y2="50.5"/>
<line class="st2" x1="20" y1="50.5" x2="19.8" y2="50.5"/>
<path class="st2" d="M19.8,50.5c-1.6,0-3.2,0-4.9,0"/>
<path class="st2" d="M14.7,50.5c-0.3,0-0.6,0-0.9-0.1c-0.3-0.1-0.6-0.1-0.8-0.3c-0.3-0.1-0.5-0.2-0.8-0.4c-0.2-0.2-0.5-0.3-0.7-0.5
	c-0.2-0.2-0.4-0.4-0.5-0.7c-0.2-0.2-0.3-0.5-0.4-0.8c-0.1-0.3-0.2-0.5-0.3-0.8c-0.1-0.3-0.1-0.6-0.1-0.9"/>
<line class="st2" x1="33.1" y1="26.6" x2="33.1" y2="26.6"/>
<line class="st2" x1="24.7" y1="26.6" x2="24.7" y2="26.6"/>
<path class="st2" d="M10.6,46.1C10.5,46.1,10.5,46.1,10.6,46.1c-0.1,0-0.1,0-0.2,0c0,0,0,0,0,0c0,0,0,0,0,0c0,0,0,0,0,0c0,0,0,0,0,0
	"/>
<path class="st2" d="M14.7,50.3C14.7,50.3,14.7,50.4,14.7,50.3c0,0.1,0,0.1,0,0.1c0,0,0,0,0,0c0,0,0,0,0,0c0,0,0,0,0,0c0,0,0,0,0,0"
	/>
<path class="st2" d="M14.9,50.3C14.9,50.3,14.9,50.4,14.9,50.3c0,0.1,0,0.1,0,0.1c0,0,0,0,0,0c0,0,0,0,0,0c0,0,0,0,0,0c0,0,0,0,0,0"
	/>
<path class="st2" d="M15,50.3C15,50.3,15,50.4,15,50.3c0,0.1,0,0.1,0,0.1c0,0,0,0,0,0c0,0,0,0,0,0c0,0,0,0,0,0c0,0,0,0,0,0"/>
<path class="st2" d="M42.7,50.3C42.7,50.3,42.7,50.4,42.7,50.3c0,0.1,0,0.1,0,0.1c0,0,0,0,0,0c0,0,0,0,0,0c0,0,0,0,0,0c0,0,0,0,0,0"
	/>
<path class="st2" d="M42.8,50.3C42.8,50.3,42.8,50.4,42.8,50.3c0,0.1,0,0.1,0,0.1c0,0,0,0,0,0c0,0,0,0,0,0c0,0,0,0,0,0c0,0,0,0,0,0"
	/>
<path class="st2" d="M43,50.3C43,50.3,43,50.4,43,50.3c0,0.1,0,0.1,0,0.1c0,0,0,0,0,0c0,0,0,0,0,0c0,0,0,0,0,0c0,0,0,0,0,0"/>
<path class="st2" d="M47.2,46.1C47.2,46.1,47.2,46.1,47.2,46.1c0.1,0,0.1,0,0.2,0c0,0,0,0,0,0c0,0,0,0,0,0c0,0,0,0,0,0c0,0,0,0,0,0"
	/>
<line class="st2" x1="47.1" y1="44.1" x2="47.1" y2="43.7"/>
<line class="st2" x1="14.9" y1="50.5" x2="15" y2="50.5"/>
<path class="st2" d="M15,50.5c2.3,0,4.6,0,6.9,0c6.9,0,13.9,0,20.8,0"/>
<path class="st2" d="M32.8,27.7c0.1,0,0.1,0,0.2-0.1c0.1,0,0.1-0.1,0.1-0.2"/>
<path class="st2" d="M24.7,27.5c0,0.1,0,0.1,0.1,0.2c0,0,0.1,0.1,0.2,0.1"/>
<path class="st2" d="M33.7,27.7C33.7,27.7,33.7,27.7,33.7,27.7c0.1,0,0.2,0,0.2-0.1c0,0,0,0,0.1-0.1c0,0,0-0.1,0-0.1"/>
<path class="st2" d="M33.9,27.7c0,0,0,0.1,0,0.1c0,0,0,0.1-0.1,0.1c0,0-0.1,0-0.1,0.1c0,0-0.1,0-0.1,0"/>
<path class="st2" d="M33.7,31.1C33.7,31.1,33.7,31.1,33.7,31.1C33.7,31.1,33.7,31.1,33.7,31.1"/>
<path class="st2" d="M24,31.1C24,31.1,24,31.1,24,31.1C24,31.1,24,31.1,24,31.1"/>
<path class="st2" d="M32.7,27.5c0,0,0.1,0,0.1,0c0,0,0.1,0,0.1-0.1c0,0,0-0.1,0.1-0.1c0,0,0-0.1,0-0.1"/>
<path class="st2" d="M25,27.5c0,0-0.1,0-0.1,0c0,0-0.1,0-0.1-0.1c0,0,0-0.1-0.1-0.1c0,0,0-0.1,0-0.1"/>
<line class="st2" x1="14.7" y1="50.5" x2="14.9" y2="50.5"/>
<path class="st2" d="M32.7,27.5C32.7,27.4,32.7,27.4,32.7,27.5c0-0.1,0-0.1,0-0.1c0,0,0-0.1,0-0.1c0,0,0-0.1,0-0.1
	c0-0.1,0-0.2,0-0.3c0-0.1,0-0.2,0-0.3"/>
<path class="st2" d="M25,26.6c0,0.1,0,0.2,0,0.3c0,0.1,0,0.2,0,0.3c0,0,0,0.1,0,0.1c0,0,0,0.1,0,0.1c0,0,0,0,0,0.1c0,0,0,0,0,0"/>
<line class="st2" x1="47.4" y1="44.1" x2="47.4" y2="43.7"/>
<line class="st2" x1="10.3" y1="43.7" x2="10.3" y2="46.1"/>
<path class="st2" d="M33,27.2C33,27.2,33,27.2,33,27.2C33,27.2,33,27.1,33,27.2c0-0.1,0-0.1,0-0.1c0,0,0-0.1,0-0.1
	c0-0.1,0-0.1,0-0.2c0-0.1,0-0.1,0-0.2"/>
<path class="st2" d="M24.8,26.6c0,0.1,0,0.1,0,0.2c0,0.1,0,0.1,0,0.2c0,0,0,0.1,0,0.1c0,0,0,0,0,0.1c0,0,0,0,0,0c0,0,0,0,0,0"/>
<line class="st2" x1="10.3" y1="43.7" x2="10.3" y2="44.1"/>
<path class="st2" d="M33.9,29.1C33.9,29,33.9,29,33.9,29.1c0-0.1-0.1-0.1-0.1-0.2c0,0-0.1,0-0.1-0.1c0,0-0.1,0-0.1,0"/>
<line class="st2" x1="47.4" y1="46.1" x2="47.4" y2="44.1"/>
<line class="st2" x1="10.6" y1="43.7" x2="10.6" y2="44.1"/>
<path class="st2" d="M47.2,46.1c0-0.2,0-0.3,0-0.5c0-0.5,0-1,0-1.5"/>
<path class="st2" d="M43,50.3c0.3,0,0.5,0,0.8-0.1c0.3-0.1,0.5-0.1,0.8-0.2c0.3-0.1,0.5-0.2,0.7-0.4c0.2-0.2,0.4-0.3,0.6-0.5
	c0.2-0.2,0.4-0.4,0.5-0.6c0.1-0.2,0.3-0.5,0.4-0.7c0.1-0.3,0.2-0.5,0.2-0.8c0-0.3,0.1-0.5,0.1-0.8"/>
<line class="st2" x1="42.8" y1="50.3" x2="43" y2="50.3"/>
<line class="st2" x1="42.7" y1="50.3" x2="42.8" y2="50.3"/>
<path class="st2" d="M42.1,47.7c0.3-0.1,0.6-0.1,0.8-0.2c0.3-0.1,0.5-0.2,0.8-0.3c0.2-0.1,0.5-0.2,0.7-0.4c0.2-0.1,0.4-0.3,0.6-0.4
	c0.4-0.3,0.8-0.6,1.1-1c0.2-0.2,0.3-0.4,0.5-0.6c0.2-0.2,0.3-0.4,0.4-0.6"/>
<path class="st2" d="M15,50.3c2.3,0,4.6,0,6.9,0c2.3,0,4.6,0,6.9,0c2.3,0,4.6,0,6.9,0c2.3,0,4.6,0,6.9,0"/>
<path class="st2" d="M23.8,29.1C23.8,29,23.8,29,23.8,29.1c0-0.1,0.1-0.1,0.1-0.2c0,0,0.1,0,0.1-0.1c0,0,0.1,0,0.1,0"/>
<path class="st2" d="M23.8,27.5c0,0,0,0.1,0,0.1"/>
<path class="st2" d="M23.8,27.6c0,0,0.1,0.1,0.1,0.1c0,0,0.1,0,0.1,0"/>
<path class="st2" d="M23.8,27.7c0,0,0,0.1,0,0.1c0,0,0,0.1,0.1,0.1c0,0,0.1,0,0.1,0.1c0,0,0.1,0,0.1,0"/>
<line class="st2" x1="42.8" y1="50.5" x2="43" y2="50.5"/>
<line class="st2" x1="42.7" y1="50.5" x2="42.8" y2="50.5"/>
<path class="st2" d="M10.6,44.1c0.1,0.2,0.3,0.4,0.4,0.6c0.2,0.2,0.3,0.4,0.5,0.6c0.3,0.4,0.7,0.7,1.1,1c0.2,0.2,0.4,0.3,0.6,0.4
	c0.2,0.1,0.5,0.3,0.7,0.4c0.3,0.1,0.5,0.2,0.8,0.3c0.3,0.1,0.6,0.2,0.8,0.2"/>
<path class="st2" d="M10.6,44.1c0,0.2,0,0.3,0,0.5c0,0.5,0,1,0,1.5"/>
<path class="st2" d="M10.6,46.1c0,0.3,0,0.5,0.1,0.8c0,0.3,0.1,0.5,0.2,0.8c0.1,0.3,0.2,0.5,0.4,0.7c0.1,0.2,0.3,0.4,0.5,0.6
	c0.2,0.2,0.4,0.4,0.6,0.5c0.2,0.2,0.5,0.3,0.7,0.4c0.3,0.1,0.5,0.2,0.8,0.2c0.3,0.1,0.5,0.1,0.8,0.1"/>
<line class="st2" x1="14.7" y1="50.3" x2="14.9" y2="50.3"/>
<line class="st2" x1="14.9" y1="50.3" x2="15" y2="50.3"/>
<path class="st2" d="M31.5,50.5c-1.8,0-3.5,0-5.3,0"/>
<path class="st2" d="M34.2,24.1c0.1,0,0.1,0.1,0.1,0.1c0,0,0.1,0.1,0.1,0.2"/>
<path class="st2" d="M23.5,24.1c0-0.3,0.1-0.7,0.2-1c0.1-0.3,0.2-0.6,0.3-1c0.1-0.3,0.3-0.6,0.5-0.9c0.2-0.3,0.4-0.5,0.7-0.8
	c0.5-0.5,1.1-0.8,1.7-1.1c0.6-0.2,1.3-0.4,2-0.4c0.7,0,1.4,0.1,2,0.4c0.6,0.2,1.2,0.6,1.7,1.1c0.2,0.2,0.5,0.5,0.7,0.8
	c0.2,0.3,0.4,0.6,0.5,0.9c0.1,0.3,0.3,0.6,0.3,1c0.1,0.3,0.1,0.7,0.2,1"/>
<path class="st2" d="M23.5,24.1c-0.1,0-0.1,0.1-0.1,0.1c0,0-0.1,0.1-0.1,0.2"/>
<path class="st2" d="M9.6,41.7c-0.2-1-0.4-2-0.6-3c-0.2-1.1-0.4-2.2-0.5-3.3c-0.1-1.2-0.2-2.3-0.3-3.5c-0.1-1.1-0.1-2.3-0.1-3.4"/>
<path class="st2" d="M9.6,15.1c-0.2,1-0.4,2-0.6,3c-0.2,1.1-0.4,2.2-0.5,3.3c-0.1,1.2-0.2,2.3-0.3,3.5c-0.1,1.1-0.1,2.3-0.1,3.4"/>
<path class="st2" d="M15.6,9.1c-0.4,0.1-0.8,0.2-1.2,0.4c-0.4,0.1-0.7,0.3-1,0.5c-0.3,0.2-0.6,0.4-0.9,0.6c-0.3,0.2-0.5,0.4-0.8,0.7
	c-0.2,0.2-0.5,0.5-0.7,0.8c-0.2,0.3-0.4,0.6-0.6,0.9c-0.2,0.3-0.4,0.7-0.5,1c-0.1,0.4-0.3,0.8-0.4,1.2"/>
<path class="st2" d="M48.1,15.1c-0.1-0.4-0.2-0.8-0.4-1.2c-0.1-0.4-0.3-0.7-0.5-1c-0.2-0.3-0.4-0.6-0.6-0.9
	c-0.2-0.3-0.4-0.5-0.7-0.8c-0.2-0.2-0.5-0.5-0.8-0.7c-0.3-0.2-0.6-0.4-0.9-0.6c-0.3-0.2-0.7-0.4-1-0.5c-0.4-0.1-0.8-0.3-1.2-0.4"/>
<path class="st2" d="M23.5,24.1C23.5,24.2,23.5,24.2,23.5,24.1c0,0.1,0,0.1,0,0.1c0,0,0,0,0,0.1c0,0,0,0,0,0"/>
<path class="st2" d="M34.2,24.1C34.2,24.2,34.2,24.2,34.2,24.1c0,0.1,0,0.1,0,0.1c0,0,0,0,0,0.1c0,0,0,0,0,0"/>
<path class="st2" d="M10.2,46.1C10.2,46.1,10.2,46.1,10.2,46.1C10.2,46.1,10.2,46.1,10.2,46.1C10.2,46.1,10.2,46.1,10.2,46.1
	c-0.1,0-0.1,0-0.1,0c0,0-0.1,0-0.1,0c0,0-0.1,0-0.1,0"/>
<path class="st2" d="M14.7,50.6C14.7,50.6,14.7,50.6,14.7,50.6C14.7,50.6,14.7,50.6,14.7,50.6C14.7,50.6,14.7,50.6,14.7,50.6
	c0,0.1,0,0.1,0,0.1c0,0,0,0,0,0.1c0,0,0,0,0,0.1c0,0,0,0.1,0,0.1"/>
<path class="st2" d="M23.6,24.4C23.6,24.4,23.6,24.4,23.6,24.4C23.6,24.4,23.6,24.4,23.6,24.4"/>
<line class="st2" x1="23.6" y1="24.4" x2="23.6" y2="24.4"/>
<path class="st2" d="M26.6,24.5c0.2,0,0.4,0,0.6,0c0.2,0,0.4,0,0.6-0.1c0.2,0,0.4-0.1,0.6-0.1c0.1,0,0.2,0,0.3,0c0.1,0,0.2,0,0.3,0"
	/>
<path class="st2" d="M47.8,46.1c0-0.3,0-0.5,0-0.8c0-0.8,0-1.6,0-2.5"/>
<line class="st2" x1="42.9" y1="50.9" x2="43" y2="50.9"/>
<path class="st2" d="M43,50.9c0.3,0,0.6,0,0.9-0.1c0.3-0.1,0.6-0.2,0.9-0.3c0.3-0.1,0.6-0.3,0.8-0.5c0.3-0.2,0.5-0.4,0.7-0.6
	c0.2-0.2,0.4-0.5,0.6-0.7c0.2-0.3,0.3-0.5,0.4-0.8c0.1-0.3,0.2-0.6,0.3-0.9c0.1-0.3,0.1-0.6,0.1-0.9"/>
<path class="st2" d="M14.8,50.9c2.3,0,4.7,0,7,0c2.3,0,4.7,0,7,0c2.3,0,4.7,0,7,0c2.3,0,4.7,0,7,0"/>
<line class="st2" x1="28.9" y1="24.2" x2="28.9" y2="24.2"/>
<path class="st2" d="M23.6,24.4C23.6,24.3,23.6,24.3,23.6,24.4c0.1-0.1,0.1-0.2,0.1-0.2"/>
<path class="st2" d="M28.9,24.2c0.1,0,0.2,0,0.3,0c0.1,0,0.2,0,0.3,0c0.1,0,0.2,0,0.3,0c0.1,0,0.2,0,0.3,0c0.2,0,0.4,0,0.6,0.1
	c0.2,0,0.4,0,0.6,0"/>
<polyline class="st2" points="34.1,24.4 34.1,24.4 34.1,24.4 "/>
<path class="st2" d="M34.2,24.4C34.2,24.4,34.2,24.4,34.2,24.4C34.2,24.4,34.2,24.4,34.2,24.4C34.2,24.4,34.2,24.4,34.2,24.4
	C34.1,24.4,34.1,24.4,34.2,24.4"/>
<path class="st2" d="M34.1,24.1c0,0,0,0.1,0,0.1c0,0,0,0.1,0,0.1"/>
<line class="st2" x1="14.7" y1="50.9" x2="14.8" y2="50.9"/>
<path class="st2" d="M9.9,42.9c0,0.3,0,0.5,0,0.8c0,0.8,0,1.6,0,2.5"/>
<path class="st2" d="M9.9,46.1c0,0.3,0,0.6,0.1,0.9c0.1,0.3,0.1,0.6,0.3,0.9c0.1,0.3,0.3,0.6,0.4,0.8c0.2,0.3,0.4,0.5,0.6,0.7
	c0.2,0.2,0.5,0.4,0.7,0.6c0.3,0.2,0.5,0.3,0.8,0.5c0.3,0.1,0.6,0.2,0.9,0.3c0.3,0.1,0.6,0.1,0.9,0.1"/>
<path class="st2" d="M23.6,24.1c0-0.3,0.1-0.7,0.2-1c0.1-0.3,0.2-0.6,0.3-0.9c0.1-0.3,0.3-0.6,0.5-0.9c0.2-0.3,0.4-0.5,0.7-0.7
	c0.5-0.5,1-0.8,1.7-1.1c0.6-0.2,1.3-0.4,1.9-0.4c0.7,0,1.3,0.1,1.9,0.4c0.6,0.2,1.2,0.6,1.7,1.1c0.2,0.2,0.5,0.5,0.7,0.7
	c0.2,0.3,0.4,0.6,0.5,0.9c0.1,0.3,0.3,0.6,0.3,0.9c0.1,0.3,0.1,0.6,0.2,1"/>
<path class="st2" d="M43,50.6c0.3,0,0.6,0,0.9-0.1c0.3-0.1,0.6-0.1,0.8-0.3c0.3-0.1,0.5-0.3,0.8-0.4c0.2-0.2,0.5-0.4,0.7-0.6
	c0.2-0.2,0.4-0.4,0.6-0.7c0.2-0.2,0.3-0.5,0.4-0.8c0.1-0.3,0.2-0.5,0.3-0.8c0.1-0.3,0.1-0.6,0.1-0.9"/>
<line class="st2" x1="47.5" y1="46.1" x2="47.5" y2="46.1"/>
<line class="st2" x1="10.2" y1="46.1" x2="10.2" y2="46.1"/>
<path class="st2" d="M10.2,46.1c0,0.3,0,0.6,0.1,0.9c0.1,0.3,0.1,0.6,0.3,0.8c0.1,0.3,0.3,0.5,0.4,0.8c0.2,0.2,0.4,0.5,0.6,0.7
	c0.2,0.2,0.4,0.4,0.7,0.6c0.2,0.2,0.5,0.3,0.8,0.4c0.3,0.1,0.6,0.2,0.8,0.3c0.3,0.1,0.6,0.1,0.9,0.1"/>
<line class="st2" x1="14.7" y1="50.6" x2="14.8" y2="50.6"/>
<line class="st2" x1="14.8" y1="50.6" x2="14.9" y2="50.6"/>
<path class="st2" d="M14.9,50.7c2.3,0,4.7,0,7,0c2.3,0,4.7,0,7,0c2.3,0,4.7,0,7,0c2.3,0,4.7,0,7,0"/>
<path class="st2" d="M33,26c0-0.2-0.1-0.5-0.3-0.6c-0.2-0.2-0.4-0.3-0.6-0.3"/>
<path class="st2" d="M25.6,25.1c-0.2,0-0.5,0.1-0.6,0.3c-0.2,0.2-0.3,0.4-0.3,0.6"/>
<path class="st2" d="M33.1,27.5C33.1,27.4,33.1,27.4,33.1,27.5"/>
<path class="st2" d="M24.7,27.4C24.7,27.4,24.7,27.4,24.7,27.4"/>
<path class="st2" d="M33.7,31.1c0.1,0,0.2,0,0.2,0"/>
<path class="st2" d="M23.8,31.1c0,0,0.1,0,0.2,0"/>
<path class="st2" d="M23.6,26.3c0,0.1,0,0.3,0,0.3"/>
<path class="st2" d="M34.1,26.6c0,0,0-0.1,0-0.3"/>
<path class="st2" d="M23.2,31.1c0.2,0,0.4-0.2,0.4-0.4"/>
<path class="st2" d="M34.1,30.6c0,0.2,0.2,0.4,0.4,0.4"/>
<path class="st2" d="M10.1,46.3c0,0.3,0,0.6,0.1,0.9c0.1,0.3,0.1,0.6,0.3,0.8c0.1,0.3,0.2,0.5,0.4,0.8c0.2,0.2,0.3,0.5,0.5,0.7
	c0.2,0.2,0.4,0.4,0.7,0.6c0.2,0.2,0.5,0.3,0.8,0.4c0.3,0.1,0.5,0.2,0.8,0.3c0.3,0.1,0.6,0.1,0.8,0.1"/>
<line class="st2" x1="10.1" y1="43.7" x2="10.1" y2="46.1"/>
<path class="st1" d="M60,75.9c0,0-2-1.5-3.6-2.2c-1.6-0.7-2.4-0.7-3.3-2.1c-1-1.4-5.2-6.9-6.4-8.3c-1.2-1.4-4-4.4-4.8-7.3
	c-0.8-2.9-0.7-4.6-1.2-5.3c-0.4-0.7-1.5-3.2-1.2-3.8c0.3-0.6,2.1-2.1,4.3,0c2.2,2,3.1,4.6,3.2,5.2c0.1,0.6,1.8,3.6,3.6,4.8
	c1.8,1.3,3.1-0.4,3.3-1.2c0.2-0.8,0.5-1.1,0.5-2.5c0-1.4-1.4-5.9-1.8-7.6c-0.2-1.3-0.5-3.5-1.5-5.7c-0.3-0.8-0.8-1.7-1.3-2.5
	c-2-3-2-3.9-2.2-4.2c-0.2-0.3-4.5-3.7-4.9-4.7c-0.4-1-2.9-2-3.6-3.2c-0.7-1.2-1.1-2.7,0-3.5s3.8,1.4,3.8,1.4s8,6,8.9,6.9
	c0.9,0.9,1.7,1.4,2.1,2.2c0.4,0.7,3.2,6.7,3.8,7c0.6,0.2,1.7-0.1,2.4,0.7c0.7,0.8,0.9,1.4,2,1.3c1.1-0.1,1.9,1.5,2.3,1.9
	c0.4,0.4,2.7-0.1,3.6,1.8c0.9,1.9,3.2,3.4,3.4,6.3c0.3,3,3.9,18.9,3.9,19.4"/>
<path class="st4" d="M49.6,46.8c0,0,2.8,1.4,3.3,1c0.5-0.4-1.5,1.1-1.6,1.9c-0.1,0.8-0.1,0.8-0.1,0.8"/>
<path class="st4" d="M41.2,53.2c0,0,3.2-0.1,3.2-0.9c0-0.8-2.3-5.2-2.3-5.2"/>
<line class="st5" x1="60" y1="75.9" x2="75.5" y2="70.6"/>
<path class="st2" d="M47.6,46.5c0-1.1,0-2.2,0-3.2"/>
</svg>
