<?xml version="1.0" encoding="utf-8"?>
<!-- Generator: Adobe Illustrator 21.1.0, SVG Export Plug-In . SVG Version: 6.00 Build 0)  -->
<svg version="1.1" id="Laag_1" xmlns="http://www.w3.org/2000/svg" xmlns:xlink="http://www.w3.org/1999/xlink" x="0px" y="0px"
	 viewBox="0 0 50.7 59.4" style="enable-background:new 0 0 50.7 59.4;" xml:space="preserve">
<style type="text/css">
	.st0{fill:none;stroke:#0A0C06;stroke-width:0.2835;stroke-linejoin:bevel;stroke-miterlimit:22.9256;}
</style>
<line class="st0" x1="20.1" y1="0.7" x2="20.1" y2="0.4"/>
<line class="st0" x1="30.5" y1="0.7" x2="30.5" y2="0.4"/>
<line class="st0" x1="30.3" y1="0.1" x2="20.4" y2="0.1"/>
<path class="st0" d="M49.9,45.2c0.9-10.3,0.9-20.6,0-30.9"/>
<path class="st0" d="M49.3,45.2c0.9-10.2,0.9-20.5,0-30.8"/>
<path class="st0" d="M48.4,45.1c0.9-10.2,0.9-20.4,0-30.6"/>
<path class="st0" d="M48.1,45.1c0.9-10.2,0.9-20.4,0-30.6"/>
<path class="st0" d="M0.8,45.2C1.4,52.3,7,58,14.1,58.7"/>
<path class="st0" d="M1.4,45.2C2,52,7.3,57.4,14.1,58.1"/>
<path class="st0" d="M2.3,45.1c0.5,6.4,5.6,11.5,11.9,12.1"/>
<path class="st0" d="M2.5,45.1C3,51.4,8,56.4,14.2,57"/>
<path class="st0" d="M20.3,29.8c0-1-0.8-1.9-1.9-1.9c-1,0-1.9,0.8-1.9,1.9c0,1,0.8,1.9,1.9,1.9C19.5,31.6,20.3,30.8,20.3,29.8"/>
<path class="st0" d="M14.1,0.8C7,1.5,1.4,7.2,0.8,14.3"/>
<path class="st0" d="M14.1,1.4C7.3,2.1,2,7.6,1.4,14.4"/>
<path class="st0" d="M14.2,2.3C7.8,3,2.8,8.1,2.3,14.5"/>
<path class="st0" d="M14.2,2.5C8,3.2,3,8.2,2.5,14.5"/>
<path class="st0" d="M20.4,0.1c-0.1,0-0.1,0-0.2,0.1c0,0-0.1,0.1-0.1,0.2"/>
<path class="st0" d="M20.1,0.4c-2,0.1-4,0.2-6.1,0.5"/>
<path class="st0" d="M36.6,0.8c-2-0.2-4-0.4-6.1-0.5"/>
<path class="st0" d="M36.5,1.4c-7.4-0.8-14.9-0.8-22.4,0"/>
<path class="st0" d="M36.4,2.3c-7.4-0.8-14.8-0.8-22.2,0"/>
<path class="st0" d="M36.4,2.5c-7.4-0.8-14.8-0.8-22.2,0"/>
<path class="st0" d="M42,29.8c0-9.2-7.5-16.7-16.7-16.7c-9.2,0-16.7,7.5-16.7,16.7c0,9.2,7.5,16.7,16.7,16.7
	C34.6,46.5,42,39,42,29.8"/>
<path class="st0" d="M41.1,29.8C41.1,21,34.1,14,25.3,14C16.6,14,9.5,21,9.5,29.8c0,8.7,7.1,15.8,15.8,15.8
	C34.1,45.6,41.1,38.5,41.1,29.8"/>
<path class="st0" d="M39.7,29.8c0-8-6.4-14.4-14.4-14.4c-7.9,0-14.4,6.4-14.4,14.4c0,7.9,6.4,14.4,14.4,14.4S39.7,37.7,39.7,29.8"/>
<path class="st0" d="M34.1,29.8c0-1-0.8-1.9-1.9-1.9c-1,0-1.9,0.8-1.9,1.9c0,1,0.8,1.9,1.9,1.9C33.2,31.6,34.1,30.8,34.1,29.8"/>
<path class="st0" d="M36.6,58.7c7.1-0.7,12.7-6.4,13.3-13.5"/>
<path class="st0" d="M36.5,58.1c6.8-0.7,12.2-6.1,12.7-13"/>
<path class="st0" d="M36.4,57.2c6.4-0.7,11.4-5.8,11.9-12.1"/>
<path class="st0" d="M36.4,57c6.3-0.6,11.2-5.7,11.7-11.9"/>
<path class="st0" d="M0.8,14.3c-0.9,10.3-0.9,20.6,0,30.9"/>
<path class="st0" d="M1.4,14.4c-0.9,10.2-0.9,20.5,0,30.8"/>
<path class="st0" d="M2.3,14.5c-0.9,10.2-0.9,20.4,0,30.6"/>
<path class="st0" d="M2,18c0,0.2,0,0.4,0,0.6"/>
<path class="st0" d="M2.5,14.5c-0.9,10.2-0.9,20.4,0,30.6"/>
<path class="st0" d="M49.9,14.3C49.3,7.2,43.7,1.5,36.6,0.8"/>
<path class="st0" d="M49.3,14.4c-0.6-6.8-5.9-12.3-12.7-13"/>
<path class="st0" d="M48.4,14.5C47.8,8.1,42.8,3,36.4,2.3"/>
<path class="st0" d="M48.1,14.5C47.6,8.2,42.7,3.2,36.4,2.5"/>
<path class="st0" d="M30.5,0.4c0-0.1,0-0.1-0.1-0.2s-0.1-0.1-0.2-0.1"/>
<path class="st0" d="M14.1,58.7c7.5,0.8,15,0.8,22.5,0"/>
<path class="st0" d="M14.1,58.1c7.4,0.8,14.9,0.8,22.4,0"/>
<path class="st0" d="M14.2,57.2c7.4,0.8,14.8,0.8,22.2,0"/>
<path class="st0" d="M14.2,57c7.4,0.8,14.8,0.8,22.2,0"/>
<line class="st0" x1="23.8" y1="15.5" x2="23.8" y2="17.9"/>
<line class="st0" x1="26.8" y1="15.5" x2="26.8" y2="17.9"/>
<line class="st0" x1="24.5" y1="19.8" x2="26.2" y2="19.8"/>
<line class="st0" x1="23.8" y1="17.9" x2="24.3" y2="17.9"/>
<line class="st0" x1="26.3" y1="17.9" x2="26.8" y2="17.9"/>
<line class="st0" x1="25.4" y1="16.5" x2="25.3" y2="16.5"/>
<path class="st0" d="M24.4,19.1c-0.1-0.7-0.1-1.4-0.2-2"/>
<path class="st0" d="M26.8,17.5C26.8,17.4,26.8,17.4,26.8,17.5"/>
<path class="st0" d="M26.8,17.9c0-0.1,0-0.3,0-0.4"/>
<path class="st0" d="M24.3,17c0-0.1,0-0.3,0-0.4"/>
<path class="st0" d="M24.5,19.4C24.5,19.4,24.5,19.3,24.5,19.4"/>
<path class="st0" d="M26.4,17c-0.1,0.7-0.1,1.4-0.2,2"/>
<path class="st0" d="M23.9,17.4C23.9,17.4,23.9,17.4,23.9,17.4"/>
<path class="st0" d="M23.9,17.5c0,0.1,0,0.3,0,0.4"/>
<path class="st0" d="M26.5,16.6c0,0.1,0,0.3,0,0.4"/>
<path class="st0" d="M26.1,19.3C26.1,19.3,26.1,19.4,26.1,19.3"/>
<path class="st0" d="M24,15.6C24,15.6,24,15.6,24,15.6C24,15.6,24,15.6,24,15.6C24,15.6,24,15.6,24,15.6c0.1,0.1,0.1,0.1,0.1,0.2
	c0,0,0,0.1,0,0.1c0,0.1,0,0.2,0.1,0.3c0,0.2,0,0.3,0.1,0.5"/>
<path class="st0" d="M26.2,19.8C26.2,19.8,26.2,19.8,26.2,19.8C26.2,19.8,26.2,19.8,26.2,19.8C26.2,19.8,26.2,19.8,26.2,19.8
	C26.2,19.8,26.2,19.7,26.2,19.8c0-0.1,0-0.1,0-0.2c0,0,0,0,0-0.1c0-0.1,0-0.1,0-0.2"/>
<path class="st0" d="M24.4,19.4c0,0.1,0,0.1,0,0.2c0,0,0,0,0,0.1c0,0,0,0,0,0.1c0,0,0,0,0,0c0,0,0,0,0,0c0,0,0,0,0,0c0,0,0,0,0,0"/>
<line class="st0" x1="24.4" y1="19.1" x2="24.4" y2="19.4"/>
<line class="st0" x1="26.2" y1="19.4" x2="26.3" y2="19.1"/>
<path class="st0" d="M26.5,16.6c0-0.2,0-0.3,0.1-0.5c0-0.1,0-0.2,0.1-0.3c0,0,0-0.1,0-0.1c0,0,0-0.1,0-0.1c0,0,0,0,0,0c0,0,0,0,0,0
	c0,0,0,0,0,0"/>
<path class="st0" d="M24.5,19.8C24.5,19.8,24.5,19.8,24.5,19.8C24.5,19.8,24.5,19.8,24.5,19.8C24.5,19.8,24.5,19.8,24.5,19.8
	c0-0.1,0-0.1,0-0.1c0,0,0,0,0-0.1c0,0,0,0,0-0.1c0-0.1,0-0.1,0-0.2"/>
<path class="st0" d="M24.5,19.3c0-0.2,0-0.4,0-0.6c0-0.3,0-0.5,0-0.8"/>
<path class="st0" d="M24.6,17.3c0-0.1,0-0.2,0.1-0.3c0-0.1,0.1-0.2,0.2-0.2c0.1-0.1,0.2-0.1,0.2-0.2c0.1,0,0.2-0.1,0.3-0.1"/>
<path class="st0" d="M25.4,16.5c0.1,0,0.2,0,0.3,0.1c0.1,0,0.2,0.1,0.2,0.2c0.1,0.1,0.1,0.1,0.2,0.2c0,0.1,0.1,0.2,0.1,0.3"/>
<line class="st0" x1="26.1" y1="17.3" x2="26.1" y2="17.9"/>
<line class="st0" x1="24.6" y1="17.9" x2="24.6" y2="17.3"/>
<path class="st0" d="M26.1,17.9c0,0.3,0,0.5,0,0.8c0,0.2,0,0.4,0,0.6"/>
<path class="st0" d="M26.1,19.4c0,0.1,0,0.1,0,0.2c0,0,0,0,0,0.1c0,0,0,0,0,0.1c0,0,0,0,0,0c0,0,0,0,0,0c0,0,0,0,0,0c0,0,0,0,0,0"/>
<path class="st0" d="M23.9,17.4c0-0.1,0-0.2,0-0.3c0-0.1,0-0.2,0-0.3c0-0.1,0-0.2,0-0.3c0-0.1,0-0.2,0-0.3c0,0,0-0.1,0-0.1
	c0,0,0-0.1,0-0.1c0,0,0-0.1,0-0.1c0,0,0-0.1,0-0.1c0,0,0-0.1,0-0.1c0,0,0,0,0-0.1c0,0,0,0,0,0c0,0,0,0,0,0"/>
<path class="st0" d="M26.7,15.6C26.7,15.6,26.7,15.6,26.7,15.6C26.7,15.6,26.7,15.6,26.7,15.6c0,0.1,0,0.1,0,0.1c0,0,0,0.1,0,0.1
	c0,0,0,0.1,0,0.1c0,0,0,0.1,0,0.1c0,0,0,0.1,0,0.1c0,0,0,0.1,0,0.1c0,0.1,0,0.2,0,0.3c0,0.1,0,0.2,0,0.3c0,0.1,0,0.2,0,0.3
	c0,0.1,0,0.2,0,0.3"/>
<path class="st0" d="M30.6,0.7C30.6,0.7,30.6,0.7,30.6,0.7C30.6,0.7,30.6,0.7,30.6,0.7C30.6,0.7,30.6,0.7,30.6,0.7
	c-0.1,0-0.1,0-0.1,0"/>
<path class="st0" d="M30.5,0.7c-0.1,0-0.2,0-0.3,0c-0.1,0-0.3,0-0.4,0c-0.2,0-0.4,0-0.5,0c-0.2,0-0.4,0-0.6,0c-0.2,0-0.5,0-0.7,0
	c-0.3,0-0.5,0-0.8,0c-0.6,0-1.2,0-1.8,0c-0.6,0-1.2,0-1.8,0c-0.3,0-0.5,0-0.8,0c-0.2,0-0.5,0-0.7,0c-0.2,0-0.4,0-0.6,0
	c-0.2,0-0.4,0-0.5,0c-0.1,0-0.3,0-0.4,0c-0.1,0-0.2,0-0.3,0"/>
<path class="st0" d="M20.1,0.7C20.1,0.7,20.1,0.7,20.1,0.7C20.1,0.7,20.1,0.7,20.1,0.7c-0.1,0-0.1,0-0.1,0c0,0,0,0,0,0"/>
<path class="st0" d="M20,0.7C20,0.7,20,0.7,20,0.7C20,0.7,20,0.7,20,0.7C20.1,0.7,20.1,0.7,20,0.7c0.1,0,0.1,0,0.1,0"/>
<path class="st0" d="M30.5,0.6C30.5,0.6,30.6,0.6,30.5,0.6C30.6,0.7,30.6,0.7,30.5,0.6C30.6,0.7,30.6,0.7,30.5,0.6
	c0.1,0,0.1,0,0.1,0"/>
<line class="st0" x1="23.8" y1="44.1" x2="23.8" y2="41.6"/>
<line class="st0" x1="26.8" y1="44.1" x2="26.8" y2="41.6"/>
<line class="st0" x1="24.5" y1="39.7" x2="26.2" y2="39.7"/>
<line class="st0" x1="23.8" y1="41.6" x2="24.3" y2="41.6"/>
<line class="st0" x1="26.3" y1="41.6" x2="26.8" y2="41.6"/>
<line class="st0" x1="25.4" y1="43" x2="25.3" y2="43"/>
<path class="st0" d="M24.4,40.5c-0.1,0.7-0.1,1.4-0.2,2"/>
<path class="st0" d="M26.8,42.1C26.8,42.1,26.8,42.1,26.8,42.1"/>
<path class="st0" d="M26.8,41.6c0,0.1,0,0.3,0,0.4"/>
<path class="st0" d="M24.3,42.5c0,0.1,0,0.3,0,0.4"/>
<path class="st0" d="M24.5,40.1C24.5,40.2,24.5,40.2,24.5,40.1"/>
<path class="st0" d="M26.4,42.5c-0.1-0.7-0.1-1.4-0.2-2"/>
<path class="st0" d="M23.9,42.2C23.9,42.1,23.9,42.1,23.9,42.2"/>
<path class="st0" d="M23.9,42.1c0-0.1,0-0.3,0-0.4"/>
<path class="st0" d="M26.5,42.9c0-0.1,0-0.3,0-0.4"/>
<path class="st0" d="M26.1,40.2C26.1,40.2,26.1,40.2,26.1,40.2"/>
<path class="st0" d="M24,44C24,44,24,44,24,44C24,43.9,24,43.9,24,44C24,43.9,24,43.9,24,44c0.1-0.1,0.1-0.1,0.1-0.2
	c0,0,0-0.1,0-0.1c0-0.1,0-0.2,0.1-0.3c0-0.2,0-0.3,0.1-0.5"/>
<path class="st0" d="M26.2,39.7C26.2,39.7,26.2,39.7,26.2,39.7C26.2,39.7,26.2,39.7,26.2,39.7C26.2,39.7,26.2,39.7,26.2,39.7
	C26.2,39.8,26.2,39.8,26.2,39.7c0,0.1,0,0.1,0,0.2c0,0,0,0,0,0.1c0,0.1,0,0.1,0,0.2"/>
<path class="st0" d="M24.4,40.1c0-0.1,0-0.1,0-0.2c0,0,0,0,0-0.1c0,0,0,0,0-0.1c0,0,0,0,0,0c0,0,0,0,0,0c0,0,0,0,0,0c0,0,0,0,0,0"/>
<line class="st0" x1="24.4" y1="40.5" x2="24.4" y2="40.1"/>
<line class="st0" x1="26.2" y1="40.1" x2="26.3" y2="40.5"/>
<path class="st0" d="M26.5,42.9c0,0.2,0,0.3,0.1,0.5c0,0.1,0,0.2,0.1,0.3c0,0,0,0.1,0,0.1c0,0,0,0.1,0,0.1c0,0,0,0,0,0c0,0,0,0,0,0
	c0,0,0,0,0,0"/>
<path class="st0" d="M24.5,39.7C24.5,39.7,24.5,39.7,24.5,39.7C24.5,39.7,24.5,39.7,24.5,39.7C24.5,39.7,24.5,39.8,24.5,39.7
	c0,0.1,0,0.1,0,0.1c0,0,0,0,0,0.1c0,0,0,0,0,0.1c0,0.1,0,0.1,0,0.2"/>
<path class="st0" d="M24.5,40.2c0,0.2,0,0.4,0,0.6c0,0.3,0,0.5,0,0.8"/>
<path class="st0" d="M24.6,42.3c0,0.1,0,0.2,0.1,0.3c0,0.1,0.1,0.2,0.2,0.2c0.1,0.1,0.2,0.1,0.2,0.2c0.1,0,0.2,0.1,0.3,0.1"/>
<path class="st0" d="M25.4,43c0.1,0,0.2,0,0.3-0.1c0.1,0,0.2-0.1,0.2-0.2c0.1-0.1,0.1-0.1,0.2-0.2c0-0.1,0.1-0.2,0.1-0.3"/>
<line class="st0" x1="26.1" y1="42.3" x2="26.1" y2="41.7"/>
<line class="st0" x1="24.6" y1="41.7" x2="24.6" y2="42.3"/>
<path class="st0" d="M26.1,41.7c0-0.3,0-0.5,0-0.8c0-0.2,0-0.4,0-0.6"/>
<path class="st0" d="M26.1,40.1c0-0.1,0-0.1,0-0.2c0,0,0-0.1,0-0.1c0,0,0,0,0-0.1c0,0,0,0,0,0c0,0,0,0,0,0c0,0,0,0,0,0c0,0,0,0,0,0"
	/>
<path class="st0" d="M23.9,42.2c0,0.1,0,0.2,0,0.3c0,0.1,0,0.2,0,0.3c0,0.1,0,0.2,0,0.3c0,0.1,0,0.2,0,0.3c0,0,0,0.1,0,0.1
	c0,0,0,0.1,0,0.1c0,0,0,0.1,0,0.1c0,0,0,0.1,0,0.1c0,0,0,0.1,0,0.1c0,0,0,0,0,0.1c0,0,0,0,0,0c0,0,0,0,0,0"/>
<path class="st0" d="M26.7,44C26.7,44,26.7,44,26.7,44C26.7,43.9,26.7,43.9,26.7,44c0-0.1,0-0.1,0-0.1c0,0,0-0.1,0-0.1
	c0,0,0-0.1,0-0.1c0,0,0-0.1,0-0.1c0,0,0-0.1,0-0.1c0,0,0-0.1,0-0.1c0-0.1,0-0.2,0-0.3c0-0.1,0-0.2,0-0.3c0-0.1,0-0.2,0-0.3
	c0-0.1,0-0.2,0-0.3"/>
<polygon points="17.8,8.3 18.8,8.3 18.8,9.9 19.6,9.9 19.6,5.9 18.8,5.9 18.8,7.3 17.8,7.3 17.8,5.9 17,5.9 17,9.9 17.8,9.9 "/>
<polygon points="22.5,9 21,9 21,8.2 22.4,8.2 22.4,7.4 21,7.4 21,6.7 22.5,6.7 22.5,5.9 20.2,5.9 20.2,9.9 22.5,9.9 "/>
<rect x="23" y="5.9" width="0.9" height="4.1"/>
<polygon points="25.1,6.8 25.7,9.9 26.3,9.9 26.9,6.8 26.9,9.9 27.6,9.9 27.6,5.9 26.4,5.9 26,8.3 25.6,5.9 24.5,5.9 24.5,9.9 
	25.1,9.9 "/>
<path d="M28.8,9.3h1l0.1,0.7h0.9l-1-4.1h-0.9l-1,4.1h0.9L28.8,9.3z M29.3,6.9l0.3,1.5H29L29.3,6.9z"/>
<polygon points="31.9,7.7 32.9,9.9 33.7,9.9 33.7,5.9 32.9,5.9 32.9,8.1 31.9,5.9 31.1,5.9 31.1,9.9 31.9,9.9 "/>
</svg>
