<?xml version="1.0" encoding="utf-8"?>
<!-- Generator: Adobe Illustrator 21.1.0, SVG Export Plug-In . SVG Version: 6.00 Build 0)  -->
<svg version="1.1" id="Laag_1" xmlns="http://www.w3.org/2000/svg" xmlns:xlink="http://www.w3.org/1999/xlink" x="0px" y="0px"
	 viewBox="0 0 99 84.8" style="enable-background:new 0 0 99 84.8;" xml:space="preserve">
<style type="text/css">
	.st0{enable-background:new    ;}
	.st1{clip-path:url(#SVGID_2_);}
	.st2{clip-path:url(#SVGID_4_);fill-rule:evenodd;clip-rule:evenodd;fill:#FFFFFF;}
	.st3{clip-path:url(#SVGID_4_);fill:none;stroke:#1D1D1B;stroke-width:0.2835;stroke-miterlimit:22.9256;}
	.st4{clip-path:url(#SVGID_6_);}
	.st5{clip-path:url(#SVGID_8_);fill-rule:evenodd;clip-rule:evenodd;fill:#FFFFFF;}
	.st6{clip-path:url(#SVGID_8_);fill:none;stroke:#1D1D1B;stroke-width:0.2835;stroke-miterlimit:22.9256;}
	.st7{clip-path:url(#SVGID_10_);}
	.st8{clip-path:url(#SVGID_12_);fill-rule:evenodd;clip-rule:evenodd;fill:#FFFFFF;}
	.st9{clip-path:url(#SVGID_12_);fill:none;stroke:#1D1D1B;stroke-width:0.2835;stroke-miterlimit:22.9256;}
	.st10{clip-path:url(#SVGID_14_);}
	.st11{clip-path:url(#SVGID_16_);fill-rule:evenodd;clip-rule:evenodd;fill:#FFFFFF;}
	.st12{clip-path:url(#SVGID_16_);fill:none;stroke:#1D1D1B;stroke-width:0.2835;stroke-miterlimit:22.9256;}
	.st13{clip-path:url(#SVGID_18_);}
	.st14{clip-path:url(#SVGID_20_);fill-rule:evenodd;clip-rule:evenodd;fill:#FFFFFF;}
	.st15{clip-path:url(#SVGID_20_);fill:none;stroke:#1D1D1B;stroke-width:0.2835;stroke-miterlimit:22.9256;}
	.st16{clip-path:url(#SVGID_22_);}
	.st17{clip-path:url(#SVGID_24_);fill-rule:evenodd;clip-rule:evenodd;fill:#FFFFFF;}
	.st18{clip-path:url(#SVGID_24_);fill:none;stroke:#1D1D1B;stroke-width:0.2835;stroke-miterlimit:22.9256;}
	.st19{clip-path:url(#SVGID_26_);}
	.st20{clip-path:url(#SVGID_28_);fill-rule:evenodd;clip-rule:evenodd;fill:#FFFFFF;}
	.st21{clip-path:url(#SVGID_28_);fill:none;stroke:#1D1D1B;stroke-width:0.2835;stroke-miterlimit:22.9256;}
	.st22{clip-path:url(#SVGID_30_);}
	.st23{clip-path:url(#SVGID_32_);fill-rule:evenodd;clip-rule:evenodd;fill:#FFFFFF;}
	.st24{clip-path:url(#SVGID_32_);fill:none;stroke:#1D1D1B;stroke-width:0.2835;stroke-miterlimit:22.9256;}
	.st25{clip-path:url(#SVGID_34_);}
	.st26{clip-path:url(#SVGID_36_);fill-rule:evenodd;clip-rule:evenodd;fill:#FFFFFF;}
	.st27{clip-path:url(#SVGID_36_);fill:none;stroke:#1D1D1B;stroke-width:0.2835;stroke-miterlimit:22.9256;}
	.st28{clip-path:url(#SVGID_38_);}
	.st29{clip-path:url(#SVGID_40_);fill-rule:evenodd;clip-rule:evenodd;fill:#FFFFFF;}
	.st30{clip-path:url(#SVGID_40_);fill:none;stroke:#1D1D1B;stroke-width:0.2835;stroke-miterlimit:22.9256;}
	.st31{clip-path:url(#SVGID_42_);}
	.st32{clip-path:url(#SVGID_44_);fill-rule:evenodd;clip-rule:evenodd;fill:#FFFFFF;}
	.st33{clip-path:url(#SVGID_44_);fill:none;stroke:#1D1D1B;stroke-width:0.2835;stroke-miterlimit:22.9256;}
	.st34{clip-path:url(#SVGID_46_);}
	.st35{clip-path:url(#SVGID_48_);fill-rule:evenodd;clip-rule:evenodd;fill:#FFFFFF;}
	.st36{clip-path:url(#SVGID_48_);fill:none;stroke:#1D1D1B;stroke-width:0.2835;stroke-miterlimit:22.9256;}
	.st37{clip-path:url(#SVGID_50_);}
	.st38{clip-path:url(#SVGID_52_);fill-rule:evenodd;clip-rule:evenodd;fill:#FFFFFF;}
	.st39{clip-path:url(#SVGID_52_);fill:none;stroke:#1D1D1B;stroke-width:0.2835;stroke-miterlimit:22.9256;}
	.st40{clip-path:url(#SVGID_54_);}
	.st41{clip-path:url(#SVGID_56_);fill-rule:evenodd;clip-rule:evenodd;fill:#FFFFFF;}
	.st42{clip-path:url(#SVGID_56_);fill:none;stroke:#FFFFFF;stroke-width:0.5669;stroke-miterlimit:22.9256;}
	.st43{fill:none;stroke:#1D1D1B;stroke-width:0.75;stroke-linecap:round;stroke-linejoin:round;stroke-miterlimit:22.9256;}
	.st44{fill-rule:evenodd;clip-rule:evenodd;fill:#FFFFFF;}
	.st45{fill:none;stroke:#0A0C06;stroke-width:0.2835;stroke-linejoin:bevel;stroke-miterlimit:22.9256;}
	.st46{fill:#0066FF;}
</style>
<g class="st0">
	<g>
		<defs>
			<rect id="SVGID_1_" y="30.7" width="42.4" height="41.3"/>
		</defs>
		<clipPath id="SVGID_2_">
			<use xlink:href="#SVGID_1_"  style="overflow:visible;"/>
		</clipPath>
		<g class="st1">
			<defs>
				<rect id="SVGID_3_" x="-39.1" y="-219.8" width="949.8" height="359.1"/>
			</defs>
			<clipPath id="SVGID_4_">
				<use xlink:href="#SVGID_3_"  style="overflow:visible;"/>
			</clipPath>
			<path class="st2" d="M0.1,30.8L0.1,30.8 M0.1,30.8h42.1v41H0.1V30.8z"/>
			<path class="st3" d="M0.1,30.8L0.1,30.8z M0.1,30.8h42.1v41H0.1V30.8z"/>
		</g>
	</g>
</g>
<g class="st0">
	<g>
		<defs>
			<rect id="SVGID_5_" x="9.5" y="35.4" width="23" height="32.2"/>
		</defs>
		<clipPath id="SVGID_6_">
			<use xlink:href="#SVGID_5_"  style="overflow:visible;"/>
		</clipPath>
		<g class="st4">
			<defs>
				<rect id="SVGID_7_" x="-39.1" y="-219.8" width="949.8" height="359.1"/>
			</defs>
			<clipPath id="SVGID_8_">
				<use xlink:href="#SVGID_7_"  style="overflow:visible;"/>
			</clipPath>
			<path class="st5" d="M9.6,35.5L9.6,35.5 M9.6,35.5v31.9h22.7V35.5H9.6z"/>
			<path class="st6" d="M9.6,35.5L9.6,35.5z M9.6,35.5v31.9h22.7V35.5H9.6z"/>
		</g>
	</g>
</g>
<g class="st0">
	<g>
		<defs>
			<rect id="SVGID_9_" x="9.3" y="35.1" width="23.4" height="32.7"/>
		</defs>
		<clipPath id="SVGID_10_">
			<use xlink:href="#SVGID_9_"  style="overflow:visible;"/>
		</clipPath>
		<g class="st7">
			<defs>
				<rect id="SVGID_11_" x="-39.1" y="-219.8" width="949.8" height="359.1"/>
			</defs>
			<clipPath id="SVGID_12_">
				<use xlink:href="#SVGID_11_"  style="overflow:visible;"/>
			</clipPath>
			<path class="st8" d="M9.4,35.3L9.4,35.3 M9.4,35.3v32.5h23.1V35.3H9.4z"/>
			<path class="st9" d="M9.4,35.3L9.4,35.3z M9.4,35.3v32.5h23.1V35.3H9.4z"/>
		</g>
	</g>
</g>
<g class="st0">
	<g>
		<defs>
			<rect id="SVGID_13_" x="15" y="40.8" width="3.8" height="3.9"/>
		</defs>
		<clipPath id="SVGID_14_">
			<use xlink:href="#SVGID_13_"  style="overflow:visible;"/>
		</clipPath>
		<g class="st10">
			<defs>
				<rect id="SVGID_15_" x="-39.1" y="-219.8" width="949.8" height="359.1"/>
			</defs>
			<clipPath id="SVGID_16_">
				<use xlink:href="#SVGID_15_"  style="overflow:visible;"/>
			</clipPath>
			<path class="st11" d="M17.6,41.6v-0.7h1.1v3.7h-1.1v-0.8c0,0,0-0.2-0.3,0c-0.3,0.2-1.1,0.5-1.8-0.2c-0.7-0.7-0.3-1.8,0.2-2.1
				C16.4,41.1,16.9,41.3,17.6,41.6"/>
			<path class="st12" d="M17.6,41.6v-0.7h1.1v3.7h-1.1v-0.8c0,0,0-0.2-0.3,0c-0.3,0.2-1.1,0.5-1.8-0.2c-0.7-0.7-0.3-1.8,0.2-2.1
				C16.4,41.1,16.9,41.3,17.6,41.6z"/>
		</g>
	</g>
</g>
<g class="st0">
	<g>
		<defs>
			<rect id="SVGID_17_" x="14.7" y="40.7" width="4" height="4.1"/>
		</defs>
		<clipPath id="SVGID_18_">
			<use xlink:href="#SVGID_17_"  style="overflow:visible;"/>
		</clipPath>
		<g class="st13">
			<defs>
				<rect id="SVGID_19_" x="-39.1" y="-219.8" width="949.8" height="359.1"/>
			</defs>
			<clipPath id="SVGID_20_">
				<use xlink:href="#SVGID_19_"  style="overflow:visible;"/>
			</clipPath>
			<path class="st14" d="M17.4,41.6v-0.8h1.1v3.8h-1.1v-0.8c0,0,0-0.2-0.3,0c-0.3,0.2-1.1,0.5-1.8-0.2c-0.7-0.7-0.3-1.8,0.2-2.1
				C16.2,41.1,16.7,41.2,17.4,41.6"/>
			<path class="st15" d="M17.4,41.6v-0.8h1.1v3.8h-1.1v-0.8c0,0,0-0.2-0.3,0c-0.3,0.2-1.1,0.5-1.8-0.2c-0.7-0.7-0.3-1.8,0.2-2.1
				C16.2,41.1,16.7,41.2,17.4,41.6z"/>
		</g>
	</g>
</g>
<g class="st0">
	<g>
		<defs>
			<rect id="SVGID_21_" x="23.8" y="40.8" width="3.8" height="3.9"/>
		</defs>
		<clipPath id="SVGID_22_">
			<use xlink:href="#SVGID_21_"  style="overflow:visible;"/>
		</clipPath>
		<g class="st16">
			<defs>
				<rect id="SVGID_23_" x="-39.1" y="-219.8" width="949.8" height="359.1"/>
			</defs>
			<clipPath id="SVGID_24_">
				<use xlink:href="#SVGID_23_"  style="overflow:visible;"/>
			</clipPath>
			<path class="st17" d="M25,41.6v-0.7h-1.1v3.7H25v-0.8c0,0,0-0.2,0.3,0c0.3,0.2,1.1,0.5,1.8-0.2c0.7-0.7,0.3-1.8-0.2-2.1
				C26.2,41.1,25.7,41.3,25,41.6"/>
			<path class="st18" d="M25,41.6v-0.7h-1.1v3.7H25v-0.8c0,0,0-0.2,0.3,0c0.3,0.2,1.1,0.5,1.8-0.2c0.7-0.7,0.3-1.8-0.2-2.1
				C26.2,41.1,25.7,41.3,25,41.6z"/>
		</g>
	</g>
</g>
<g class="st0">
	<g>
		<defs>
			<rect id="SVGID_25_" x="23.9" y="40.7" width="4" height="4.1"/>
		</defs>
		<clipPath id="SVGID_26_">
			<use xlink:href="#SVGID_25_"  style="overflow:visible;"/>
		</clipPath>
		<g class="st19">
			<defs>
				<rect id="SVGID_27_" x="-39.1" y="-219.8" width="949.8" height="359.1"/>
			</defs>
			<clipPath id="SVGID_28_">
				<use xlink:href="#SVGID_27_"  style="overflow:visible;"/>
			</clipPath>
			<path class="st20" d="M25.1,41.6v-0.8H24v3.8h1.1v-0.8c0,0,0-0.2,0.3,0c0.3,0.2,1.1,0.5,1.8-0.2c0.7-0.7,0.3-1.8-0.2-2.1
				C26.4,41.1,25.9,41.2,25.1,41.6"/>
			<path class="st21" d="M25.1,41.6v-0.8H24v3.8h1.1v-0.8c0,0,0-0.2,0.3,0c0.3,0.2,1.1,0.5,1.8-0.2c0.7-0.7,0.3-1.8-0.2-2.1
				C26.4,41.1,25.9,41.2,25.1,41.6z"/>
		</g>
	</g>
</g>
<g class="st0">
	<g>
		<defs>
			<rect id="SVGID_29_" x="20.6" y="51.2" width="1.3" height="3.9"/>
		</defs>
		<clipPath id="SVGID_30_">
			<use xlink:href="#SVGID_29_"  style="overflow:visible;"/>
		</clipPath>
		<g class="st22">
			<defs>
				<rect id="SVGID_31_" x="-39.1" y="-219.8" width="949.8" height="359.1"/>
			</defs>
			<clipPath id="SVGID_32_">
				<use xlink:href="#SVGID_31_"  style="overflow:visible;"/>
			</clipPath>
			<path class="st23" d="M20.7,51.4L20.7,51.4 M20.7,51.4h1v3.6h-1V51.4z"/>
			<path class="st24" d="M20.7,51.4L20.7,51.4z M20.7,51.4h1v3.6h-1V51.4z"/>
		</g>
	</g>
</g>
<g class="st0">
	<g>
		<defs>
			<rect id="SVGID_33_" x="20.6" y="51" width="1.4" height="4"/>
		</defs>
		<clipPath id="SVGID_34_">
			<use xlink:href="#SVGID_33_"  style="overflow:visible;"/>
		</clipPath>
		<g class="st25">
			<defs>
				<rect id="SVGID_35_" x="-39.1" y="-219.8" width="949.8" height="359.1"/>
			</defs>
			<clipPath id="SVGID_36_">
				<use xlink:href="#SVGID_35_"  style="overflow:visible;"/>
			</clipPath>
			<path class="st26" d="M20.7,51.2L20.7,51.2 M20.7,51.2h1.1v3.7h-1.1V51.2z"/>
			<path class="st27" d="M20.7,51.2L20.7,51.2z M20.7,51.2h1.1v3.7h-1.1V51.2z"/>
		</g>
	</g>
</g>
<g class="st0">
	<g>
		<defs>
			<rect id="SVGID_37_" x="16.5" y="57.9" width="3" height="4"/>
		</defs>
		<clipPath id="SVGID_38_">
			<use xlink:href="#SVGID_37_"  style="overflow:visible;"/>
		</clipPath>
		<g class="st28">
			<defs>
				<rect id="SVGID_39_" x="-39.1" y="-219.8" width="949.8" height="359.1"/>
			</defs>
			<clipPath id="SVGID_40_">
				<use xlink:href="#SVGID_39_"  style="overflow:visible;"/>
			</clipPath>
			<path class="st29" d="M16.7,58.7L16.7,58.7 M16.7,58.7l0.9-0.6l1.8,2.9l-0.8,0.6L16.7,58.7z"/>
			<path class="st30" d="M16.7,58.7L16.7,58.7z M16.7,58.7l0.9-0.6l1.8,2.9l-0.8,0.6L16.7,58.7z"/>
		</g>
	</g>
</g>
<g class="st0">
	<g>
		<defs>
			<rect id="SVGID_41_" x="16.3" y="58" width="3.1" height="4.1"/>
		</defs>
		<clipPath id="SVGID_42_">
			<use xlink:href="#SVGID_41_"  style="overflow:visible;"/>
		</clipPath>
		<g class="st31">
			<defs>
				<rect id="SVGID_43_" x="-39.1" y="-219.8" width="949.8" height="359.1"/>
			</defs>
			<clipPath id="SVGID_44_">
				<use xlink:href="#SVGID_43_"  style="overflow:visible;"/>
			</clipPath>
			<path class="st32" d="M16.5,58.8L16.5,58.8 M16.5,58.8l0.9-0.6l1.9,3.1l-0.9,0.6L16.5,58.8z"/>
			<path class="st33" d="M16.5,58.8L16.5,58.8z M16.5,58.8l0.9-0.6l1.9,3.1l-0.9,0.6L16.5,58.8z"/>
		</g>
	</g>
</g>
<g class="st0">
	<g>
		<defs>
			<rect id="SVGID_45_" x="23.2" y="57.9" width="3" height="4"/>
		</defs>
		<clipPath id="SVGID_46_">
			<use xlink:href="#SVGID_45_"  style="overflow:visible;"/>
		</clipPath>
		<g class="st34">
			<defs>
				<rect id="SVGID_47_" x="-39.1" y="-219.8" width="949.8" height="359.1"/>
			</defs>
			<clipPath id="SVGID_48_">
				<use xlink:href="#SVGID_47_"  style="overflow:visible;"/>
			</clipPath>
			<path class="st35" d="M26,58.7L26,58.7 M26,58.7l-0.9-0.6l-1.8,2.9l0.8,0.6L26,58.7z"/>
			<path class="st36" d="M26,58.7L26,58.7z M26,58.7l-0.9-0.6l-1.8,2.9l0.8,0.6L26,58.7z"/>
		</g>
	</g>
</g>
<g class="st0">
	<g>
		<defs>
			<rect id="SVGID_49_" x="23.2" y="58" width="3.1" height="4.1"/>
		</defs>
		<clipPath id="SVGID_50_">
			<use xlink:href="#SVGID_49_"  style="overflow:visible;"/>
		</clipPath>
		<g class="st37">
			<defs>
				<rect id="SVGID_51_" x="-39.1" y="-219.8" width="949.8" height="359.1"/>
			</defs>
			<clipPath id="SVGID_52_">
				<use xlink:href="#SVGID_51_"  style="overflow:visible;"/>
			</clipPath>
			<path class="st38" d="M26.2,58.8L26.2,58.8 M26.2,58.8l-0.9-0.6l-1.9,3.1l0.9,0.6L26.2,58.8z"/>
			<path class="st39" d="M26.2,58.8L26.2,58.8z M26.2,58.8l-0.9-0.6l-1.9,3.1l0.9,0.6L26.2,58.8z"/>
		</g>
	</g>
</g>
<g class="st0">
	<g>
		<defs>
			<rect id="SVGID_53_" x="18.3" width="70.1" height="42.9"/>
		</defs>
		<clipPath id="SVGID_54_">
			<use xlink:href="#SVGID_53_"  style="overflow:visible;"/>
		</clipPath>
		<g class="st40">
			<defs>
				<rect id="SVGID_55_" x="-39.1" y="-219.8" width="949.8" height="359.1"/>
			</defs>
			<clipPath id="SVGID_56_">
				<use xlink:href="#SVGID_55_"  style="overflow:visible;"/>
			</clipPath>
			<path class="st41" d="M51.8,40.4L51.8,40.4 M51.8,40.4l1-2.9l4.7-3l7.9-1.5l4-2.4l2.9-1.8L70.4,28l-1.7-2.4l-2.6,2.6l-6,3.7
				l-3.5,0.8l-5.1-3.3l-3.9-5.1l-5.9,1l-4.7,1.2l-4.6,2.9l-5.7,3l-3.1,2.1L21,35.5l-1.9-0.7l-0.5-1.9l2.1-2.9l13-9.6l3.7-2.3
				l11.1-2.7c0,0,1.4-2.6,1.1-3.1c-0.4-0.5,6-4.6,6-4.6l3.3-4.4L67,0.3l17.1,6.1l4.1,26.4l-16.3,7.7l-9.5,1.9L58,41.9
				c0,0-4.9,0.8-5.2,0.8c-0.2-0.1-0.7-1.6-0.7-1.6L51.8,40.4z"/>
			<path class="st42" d="M51.8,40.4L51.8,40.4z M51.8,40.4l1-2.9l4.7-3l7.9-1.5l4-2.4l2.9-1.8L70.4,28l-1.7-2.4l-2.6,2.6l-6,3.7
				l-3.5,0.8l-5.1-3.3l-3.9-5.1l-5.9,1l-4.7,1.2l-4.6,2.9l-5.7,3l-3.1,2.1L21,35.5l-1.9-0.7l-0.5-1.9l2.1-2.9l13-9.6l3.7-2.3
				l11.1-2.7c0,0,1.4-2.6,1.1-3.1c-0.4-0.5,6-4.6,6-4.6l3.3-4.4L67,0.3l17.1,6.1l4.1,26.4l-16.3,7.7l-9.5,1.9L58,41.9
				c0,0-4.9,0.8-5.2,0.8c-0.2-0.1-0.7-1.6-0.7-1.6L51.8,40.4z"/>
		</g>
	</g>
</g>
<path class="st43" d="M98.6,25.7c0,0-2.7,2.1-4.3,3.9c-1.5,1.9-1.7,2.9-4,3.7c-2.2,0.8-11.1,4.4-13.4,5.5c-2.3,1.1-7.3,3.7-11.5,3.8
	c-4.2,0-6.4-0.7-7.5-0.4c-1.1,0.4-4.8,0.8-5.5,0.2c-0.7-0.6-2-3.5,1.5-5.8c3.5-2.2,7.2-2.4,8-2.3c0.8,0.1,5.4-1.1,7.7-3
	c2.4-2,0.6-4.3-0.4-4.8c-0.9-0.6-1.3-1-3.2-1.6c-1.9-0.5-8.3-0.2-10.7-0.4c-1.8-0.1-4.8-0.5-8.2-0.1c-1.2,0.1-2.5,0.4-3.8,0.8
	c-4.8,1.6-5.9,1.3-6.4,1.5c-0.4,0.2-6.6,4.7-8,4.9c-1.5,0.2-3.8,3.1-5.6,3.6c-1.8,0.4-4,0.5-4.7-1.2c-0.7-1.7,3.2-4.6,3.2-4.6
	s10.9-8.5,12.4-9.4c1.5-0.9,2.5-1.8,3.7-2c1.1-0.3,10.2-1.8,10.7-2.6c0.5-0.8,0.5-2.2,1.9-2.9c1.4-0.7,2.2-0.7,2.5-2.2
	c0.3-1.5,2.7-2.1,3.3-2.4c0.7-0.4,0.8-3.6,3.7-4.2c2.9-0.6,5.6-3,9.7-2.3c4.1,0.7,26.6,1.6,27.3,1.8"/>
<path class="st43" d="M47.2,24.7c0,0,2.4,3.2,3.9,4.3c1.5,1,3.2,3,4.5,3.4c1.3,0.4,2,0.8,3.2,0.6c1.2-0.3,7.8-3.4,8.4-5"/>
<path class="st43" d="M55.9,29c0,0,2.9-3.2,2.5-4c-0.3-0.7,0.9,2.4,2,2.9c1.1,0.4,1.1,0.4,1.1,0.4"/>
<path class="st43" d="M61.4,42.5c0,0,1-4.3,0-4.6c-1-0.3-7.8,1.2-7.8,1.2"/>
<polyline class="st44" points="21.7,35.5 25.7,35.6 28.3,35.7 30.5,35.9 32.3,36.1 34.4,36.7 36.3,37.6 38,38.8 39.3,40.2 
	40.4,41.7 41.4,43.6 42.1,45.8 42.3,48 42.5,50.4 42.7,54.4 42.8,58.7 42.8,62.8 42.6,67.7 42.3,72.8 42.1,74.3 41.6,76.2 
	40.8,77.8 40,79.2 39,80.3 37.5,81.6 36.2,82.5 34.8,83.2 33.3,83.7 31.6,84.1 29.8,84.3 25.1,84.6 22.7,84.6 16.8,84.5 12.5,84.1 
	10.3,83.7 8.9,83.2 7.2,82.4 5.7,81.2 4.1,79.6 2.8,77.4 1.9,75.1 1.5,73.2 1.1,67.3 0.9,59 1,56.7 1.2,50.5 1.5,46.6 1.9,45 
	2.8,42.6 4.2,40.5 5.5,39 7,37.9 9,36.9 10.9,36.2 13.3,35.9 15.8,35.7 21.7,35.5 "/>
<line class="st45" x1="17.6" y1="36" x2="17.6" y2="35.7"/>
<line class="st45" x1="26.2" y1="36" x2="26.2" y2="35.7"/>
<line class="st45" x1="26" y1="35.5" x2="17.7" y2="35.5"/>
<path class="st45" d="M42.2,72.9c0.7-8.5,0.7-17.1,0-25.6"/>
<path class="st45" d="M41.7,72.9c0.7-8.5,0.7-17,0-25.5"/>
<path class="st45" d="M41,72.8c0.7-8.5,0.7-17,0-25.4"/>
<path class="st45" d="M40.8,72.8c0.7-8.4,0.7-16.9,0-25.4"/>
<path class="st45" d="M1.5,72.9c0.5,5.9,5.1,10.6,11,11.2"/>
<path class="st45" d="M2,72.9C2.5,78.5,6.9,83,12.6,83.6"/>
<path class="st45" d="M2.7,72.8c0.4,5.3,4.6,9.5,9.9,10.1"/>
<path class="st45" d="M2.9,72.8c0.4,5.2,4.5,9.4,9.7,9.9"/>
<path class="st45" d="M17.7,60.1c0-0.9-0.7-1.5-1.5-1.5c-0.9,0-1.5,0.7-1.5,1.5s0.7,1.5,1.5,1.5C17,61.6,17.7,60.9,17.7,60.1"/>
<path class="st45" d="M12.5,36.1C6.6,36.7,2,41.4,1.5,47.3"/>
<path class="st45" d="M12.6,36.6C6.9,37.1,2.5,41.7,2,47.3"/>
<path class="st45" d="M12.7,37.3c-5.3,0.5-9.5,4.8-9.9,10.1"/>
<path class="st45" d="M12.7,37.5c-5.2,0.5-9.3,4.7-9.7,9.9"/>
<path class="st45" d="M17.7,35.5c0,0-0.1,0-0.1,0.1c0,0-0.1,0.1-0.1,0.1"/>
<path class="st45" d="M17.6,35.7c-1.7,0.1-3.4,0.2-5,0.4"/>
<path class="st45" d="M31.2,36.1c-1.7-0.2-3.4-0.3-5-0.4"/>
<path class="st45" d="M31.2,36.6c-6.2-0.6-12.4-0.6-18.6,0"/>
<path class="st45" d="M31.1,37.3c-6.1-0.6-12.3-0.6-18.4,0"/>
<path class="st45" d="M31.1,37.5c-6.1-0.6-12.3-0.6-18.4,0"/>
<path class="st45" d="M35.7,60.1c0-7.7-6.2-13.9-13.9-13.9C14.2,46.2,8,52.4,8,60.1C8,67.8,14.2,74,21.9,74
	C29.5,74,35.7,67.8,35.7,60.1"/>
<path class="st45" d="M35,60.1C35,52.9,29.1,47,21.9,47c-7.2,0-13.1,5.9-13.1,13.1s5.9,13.1,13.1,13.1C29.1,73.2,35,67.3,35,60.1"/>
<path class="st45" d="M33.8,60.1c0-6.6-5.4-11.9-11.9-11.9c-6.6,0-11.9,5.4-11.9,11.9S15.3,72,21.9,72C28.5,72,33.8,66.7,33.8,60.1"
	/>
<path class="st45" d="M29.1,60.1c0-0.9-0.7-1.5-1.5-1.5c-0.9,0-1.5,0.7-1.5,1.5s0.7,1.5,1.5,1.5C28.4,61.6,29.1,60.9,29.1,60.1"/>
<path class="st45" d="M31.2,84.1c5.9-0.6,10.5-5.3,11-11.2"/>
<path class="st45" d="M31.2,83.6c5.7-0.6,10.1-5.1,10.6-10.8"/>
<path class="st45" d="M31.1,82.9c5.3-0.5,9.5-4.8,9.9-10.1"/>
<path class="st45" d="M31.1,82.7c5.2-0.5,9.3-4.7,9.7-9.9"/>
<path class="st45" d="M1.5,47.3c-0.7,8.5-0.7,17.1,0,25.6"/>
<path class="st45" d="M2,47.3c-0.7,8.5-0.7,17,0,25.5"/>
<path class="st45" d="M2.7,47.4c-0.7,8.5-0.7,17,0,25.4"/>
<path class="st45" d="M2.5,50.4c0,0.2,0,0.3,0,0.5"/>
<path class="st45" d="M2.9,47.4c-0.7,8.4-0.7,16.9,0,25.4"/>
<path class="st45" d="M42.2,47.3c-0.5-5.9-5.1-10.6-11-11.2"/>
<path class="st45" d="M41.7,47.3c-0.5-5.7-4.9-10.2-10.6-10.8"/>
<path class="st45" d="M41,47.4c-0.4-5.3-4.6-9.5-9.9-10.1"/>
<path class="st45" d="M40.8,47.4c-0.4-5.2-4.5-9.4-9.7-9.9"/>
<path class="st45" d="M26.2,35.7c0,0,0-0.1-0.1-0.1c0,0-0.1-0.1-0.1-0.1"/>
<path class="st45" d="M12.5,84.1c6.2,0.6,12.5,0.6,18.7,0"/>
<path class="st45" d="M12.6,83.6c6.2,0.6,12.4,0.6,18.6,0"/>
<path class="st45" d="M12.7,82.9c6.1,0.6,12.3,0.6,18.4,0"/>
<path class="st45" d="M12.7,82.7c6.1,0.6,12.3,0.6,18.4,0"/>
<line class="st45" x1="20.6" y1="48.2" x2="20.6" y2="50.2"/>
<line class="st45" x1="23.1" y1="48.2" x2="23.1" y2="50.2"/>
<line class="st45" x1="21.2" y1="51.8" x2="22.6" y2="51.8"/>
<line class="st45" x1="20.6" y1="50.2" x2="21" y2="50.2"/>
<line class="st45" x1="22.7" y1="50.2" x2="23.1" y2="50.2"/>
<line class="st45" x1="21.9" y1="49.1" x2="21.9" y2="49.1"/>
<path class="st45" d="M21.1,51.2c0-0.6-0.1-1.1-0.1-1.7"/>
<path class="st45" d="M23.1,49.9C23.1,49.9,23.1,49.8,23.1,49.9"/>
<path class="st45" d="M23.1,50.2c0-0.1,0-0.2,0-0.4"/>
<path class="st45" d="M21,49.5c0-0.1,0-0.2,0-0.3"/>
<path class="st45" d="M21.2,51.5C21.2,51.5,21.2,51.4,21.2,51.5"/>
<path class="st45" d="M22.8,49.5c0,0.6-0.1,1.1-0.1,1.7"/>
<path class="st45" d="M20.6,49.8C20.6,49.8,20.6,49.9,20.6,49.8"/>
<path class="st45" d="M20.6,49.9c0,0.1,0,0.2,0,0.4"/>
<path class="st45" d="M22.8,49.2c0,0.1,0,0.2,0,0.3"/>
<path class="st45" d="M22.5,51.4C22.5,51.4,22.5,51.5,22.5,51.4"/>
<path class="st45" d="M20.8,48.3C20.8,48.3,20.8,48.3,20.8,48.3C20.8,48.3,20.8,48.3,20.8,48.3C20.8,48.3,20.8,48.4,20.8,48.3
	c0.1,0.1,0.1,0.1,0.1,0.1c0,0,0,0.1,0,0.1c0,0.1,0,0.2,0,0.3c0,0.1,0,0.3,0,0.4"/>
<path class="st45" d="M22.6,51.8C22.6,51.8,22.6,51.8,22.6,51.8C22.6,51.8,22.6,51.8,22.6,51.8C22.6,51.8,22.6,51.8,22.6,51.8
	C22.6,51.8,22.6,51.8,22.6,51.8c0-0.1,0-0.1,0-0.1c0,0,0,0,0-0.1c0,0,0-0.1,0-0.1"/>
<path class="st45" d="M21.1,51.5c0,0,0,0.1,0,0.1c0,0,0,0,0,0.1c0,0,0,0,0,0c0,0,0,0,0,0c0,0,0,0,0,0c0,0,0,0,0,0c0,0,0,0,0,0"/>
<line class="st45" x1="21.1" y1="51.2" x2="21.1" y2="51.5"/>
<line class="st45" x1="22.6" y1="51.5" x2="22.6" y2="51.2"/>
<path class="st45" d="M22.8,49.2c0-0.1,0-0.3,0-0.4c0-0.1,0-0.2,0-0.3c0,0,0-0.1,0-0.1c0,0,0,0,0-0.1c0,0,0,0,0,0c0,0,0,0,0,0
	c0,0,0,0,0,0"/>
<path class="st45" d="M21.2,51.8C21.2,51.8,21.2,51.8,21.2,51.8C21.2,51.8,21.2,51.8,21.2,51.8C21.2,51.8,21.2,51.8,21.2,51.8
	C21.2,51.8,21.2,51.8,21.2,51.8c0-0.1,0-0.1,0-0.1c0,0,0,0,0-0.1c0-0.1,0-0.1,0-0.2"/>
<path class="st45" d="M21.2,51.4c0-0.2,0-0.4,0-0.5c0-0.2,0-0.4,0-0.7"/>
<path class="st45" d="M21.2,49.7c0-0.1,0-0.2,0-0.2c0-0.1,0.1-0.1,0.1-0.2c0.1-0.1,0.1-0.1,0.2-0.1c0.1,0,0.2,0,0.2,0"/>
<path class="st45" d="M21.9,49.1c0.1,0,0.2,0,0.2,0c0.1,0,0.1,0.1,0.2,0.1c0.1,0.1,0.1,0.1,0.1,0.2c0,0.1,0,0.2,0,0.2"/>
<line class="st45" x1="22.5" y1="49.7" x2="22.5" y2="50.2"/>
<line class="st45" x1="21.2" y1="50.2" x2="21.2" y2="49.7"/>
<path class="st45" d="M22.5,50.2c0,0.2,0,0.4,0,0.7c0,0.2,0,0.4,0,0.5"/>
<path class="st45" d="M22.5,51.5c0,0.1,0,0.1,0,0.2c0,0,0,0,0,0.1c0,0,0,0,0,0.1c0,0,0,0,0,0c0,0,0,0,0,0c0,0,0,0,0,0c0,0,0,0,0,0"
	/>
<path class="st45" d="M20.6,49.8c0-0.1,0-0.2,0-0.2c0-0.1,0-0.2,0-0.2c0-0.1,0-0.2,0-0.2c0-0.1,0-0.2,0-0.2c0,0,0-0.1,0-0.1
	c0,0,0-0.1,0-0.1c0,0,0-0.1,0-0.1c0,0,0-0.1,0-0.1c0,0,0,0,0-0.1c0,0,0,0,0,0c0,0,0,0,0,0c0,0,0,0,0,0"/>
<path class="st45" d="M23,48.3C23,48.3,23,48.3,23,48.3C23,48.3,23,48.3,23,48.3C23,48.4,23,48.4,23,48.3c0,0.1,0,0.1,0,0.2
	c0,0,0,0.1,0,0.1c0,0,0,0.1,0,0.1c0,0,0,0.1,0,0.1c0,0,0,0.1,0,0.1c0,0.1,0,0.2,0,0.2c0,0.1,0,0.2,0,0.2c0,0.1,0,0.2,0,0.2
	c0,0.1,0,0.2,0,0.2"/>
<path class="st45" d="M26.3,35.9C26.3,35.9,26.3,36,26.3,35.9C26.3,36,26.3,36,26.3,35.9C26.2,36,26.2,36,26.3,35.9
	C26.2,36,26.2,36,26.3,35.9"/>
<path class="st45" d="M26.2,36c-0.1,0-0.1,0-0.2,0c-0.1,0-0.2,0-0.3,0c-0.1,0-0.3,0-0.4,0c-0.2,0-0.4,0-0.5,0c-0.2,0-0.4,0-0.6,0
	c-0.2,0-0.5,0-0.7,0c-0.5,0-1,0-1.5,0c-0.5,0-1,0-1.5,0c-0.2,0-0.5,0-0.7,0c-0.2,0-0.4,0-0.6,0c-0.2,0-0.4,0-0.5,0
	c-0.1,0-0.3,0-0.4,0c-0.1,0-0.2,0-0.3,0c-0.1,0-0.1,0-0.2,0"/>
<path class="st45" d="M17.6,36C17.5,36,17.5,36,17.6,36C17.5,36,17.5,36,17.6,36C17.5,36,17.5,36,17.6,36C17.5,36,17.5,35.9,17.6,36
	"/>
<path class="st45" d="M17.5,35.9C17.5,35.9,17.5,35.9,17.5,35.9C17.5,35.9,17.5,35.9,17.5,35.9C17.5,35.9,17.5,35.9,17.5,35.9
	C17.5,35.9,17.5,35.9,17.5,35.9"/>
<path class="st45" d="M26.2,35.9C26.2,35.9,26.2,35.9,26.2,35.9C26.2,35.9,26.2,35.9,26.2,35.9C26.3,35.9,26.3,35.9,26.2,35.9
	C26.3,35.9,26.3,35.9,26.2,35.9"/>
<line class="st45" x1="20.6" y1="72" x2="20.6" y2="69.9"/>
<line class="st45" x1="23.1" y1="72" x2="23.1" y2="69.9"/>
<line class="st45" x1="21.2" y1="68.3" x2="22.6" y2="68.3"/>
<line class="st45" x1="20.6" y1="69.9" x2="21" y2="69.9"/>
<line class="st45" x1="22.7" y1="69.9" x2="23.1" y2="69.9"/>
<line class="st45" x1="21.9" y1="71.1" x2="21.9" y2="71.1"/>
<path class="st45" d="M21.1,69c0,0.6-0.1,1.1-0.1,1.7"/>
<path class="st45" d="M23.1,70.3C23.1,70.3,23.1,70.4,23.1,70.3"/>
<path class="st45" d="M23.1,69.9c0,0.1,0,0.2,0,0.4"/>
<path class="st45" d="M21,70.7c0,0.1,0,0.2,0,0.3"/>
<path class="st45" d="M21.2,68.7C21.2,68.7,21.2,68.8,21.2,68.7"/>
<path class="st45" d="M22.8,70.7c0-0.6-0.1-1.1-0.1-1.7"/>
<path class="st45" d="M20.6,70.4C20.6,70.4,20.6,70.3,20.6,70.4"/>
<path class="st45" d="M20.6,70.3c0-0.1,0-0.2,0-0.4"/>
<path class="st45" d="M22.8,71c0-0.1,0-0.2,0-0.3"/>
<path class="st45" d="M22.5,68.8C22.5,68.8,22.5,68.7,22.5,68.8"/>
<path class="st45" d="M20.8,71.9C20.8,71.9,20.8,71.9,20.8,71.9C20.8,71.9,20.8,71.9,20.8,71.9C20.8,71.8,20.8,71.8,20.8,71.9
	c0.1-0.1,0.1-0.1,0.1-0.1c0,0,0-0.1,0-0.1c0-0.1,0-0.2,0-0.3c0-0.1,0-0.3,0-0.4"/>
<path class="st45" d="M22.6,68.3C22.6,68.3,22.6,68.3,22.6,68.3C22.6,68.4,22.6,68.4,22.6,68.3C22.6,68.4,22.6,68.4,22.6,68.3
	C22.6,68.4,22.6,68.4,22.6,68.3c0,0.1,0,0.1,0,0.1c0,0,0,0,0,0.1c0,0,0,0.1,0,0.1"/>
<path class="st45" d="M21.1,68.7c0,0,0-0.1,0-0.1c0,0,0,0,0-0.1c0,0,0,0,0,0c0,0,0,0,0,0c0,0,0,0,0,0c0,0,0,0,0,0c0,0,0,0,0,0"/>
<line class="st45" x1="21.1" y1="69" x2="21.1" y2="68.7"/>
<line class="st45" x1="22.6" y1="68.7" x2="22.6" y2="69"/>
<path class="st45" d="M22.8,71c0,0.1,0,0.3,0,0.4c0,0.1,0,0.2,0,0.3c0,0,0,0.1,0,0.1c0,0,0,0,0,0.1c0,0,0,0,0,0c0,0,0,0,0,0
	c0,0,0,0,0,0"/>
<path class="st45" d="M21.2,68.3C21.2,68.3,21.2,68.3,21.2,68.3C21.2,68.4,21.2,68.4,21.2,68.3C21.2,68.4,21.2,68.4,21.2,68.3
	C21.2,68.4,21.2,68.4,21.2,68.3c0,0.1,0,0.1,0,0.1c0,0,0,0,0,0.1c0,0.1,0,0.1,0,0.2"/>
<path class="st45" d="M21.2,68.8c0,0.2,0,0.4,0,0.5c0,0.2,0,0.4,0,0.7"/>
<path class="st45" d="M21.2,70.5c0,0.1,0,0.2,0,0.2c0,0.1,0.1,0.1,0.1,0.2c0.1,0.1,0.1,0.1,0.2,0.1c0.1,0,0.2,0,0.2,0"/>
<path class="st45" d="M21.9,71.1c0.1,0,0.2,0,0.2,0c0.1,0,0.1-0.1,0.2-0.1c0.1-0.1,0.1-0.1,0.1-0.2s0-0.2,0-0.2"/>
<line class="st45" x1="22.5" y1="70.5" x2="22.5" y2="70"/>
<line class="st45" x1="21.2" y1="70" x2="21.2" y2="70.5"/>
<path class="st45" d="M22.5,70c0-0.2,0-0.4,0-0.7c0-0.2,0-0.4,0-0.5"/>
<path class="st45" d="M22.5,68.7c0-0.1,0-0.1,0-0.2c0,0,0,0,0-0.1c0,0,0,0,0-0.1c0,0,0,0,0,0c0,0,0,0,0,0c0,0,0,0,0,0c0,0,0,0,0,0"
	/>
<path class="st45" d="M20.6,70.4c0,0.1,0,0.2,0,0.2c0,0.1,0,0.2,0,0.2c0,0.1,0,0.2,0,0.2c0,0.1,0,0.2,0,0.2c0,0,0,0.1,0,0.1
	c0,0,0,0.1,0,0.1c0,0,0,0.1,0,0.1c0,0,0,0.1,0,0.1c0,0,0,0,0,0.1c0,0,0,0,0,0.1c0,0,0,0,0,0c0,0,0,0,0,0"/>
<path class="st45" d="M23,71.9C23,71.9,23,71.9,23,71.9C23,71.9,23,71.8,23,71.9C23,71.8,23,71.8,23,71.9c0-0.1,0-0.1,0-0.2
	c0,0,0-0.1,0-0.1c0,0,0-0.1,0-0.1c0,0,0-0.1,0-0.1c0,0,0-0.1,0-0.1c0-0.1,0-0.2,0-0.2c0-0.1,0-0.2,0-0.2c0-0.1,0-0.2,0-0.2
	c0-0.1,0-0.2,0-0.2"/>
<rect x="17.6" y="35.6" class="st46" width="8.4" height="0.3"/>
</svg>
